<svg xmlns="http://www.w3.org/2000/svg" width="945" height="945"><defs><linearGradient id="a" x1="84.7" x2="178.9" y1="972.4" y2="703.6" gradientUnits="userSpaceOnUse"><stop offset="0" stop-color="#103a73"/><stop offset="1" stop-color="#3d88ca"/></linearGradient><linearGradient id="b" x1="878.9" x2="757.4" y1="838.2" y2="664.8" gradientUnits="userSpaceOnUse"><stop offset="0" stop-color="#e04e19"/><stop offset="1" stop-color="#fc9631"/></linearGradient><linearGradient id="c" x1="929.4" x2="809.6" y1="954.4" y2="807.4" gradientUnits="userSpaceOnUse"><stop offset="0" stop-color="#ca330b"/><stop offset="1" stop-color="#e45d20"/></linearGradient><linearGradient id="d" x1="757.6" x2="762.6" y1="220.9" y2="216.3" gradientUnits="userSpaceOnUse"><stop offset="0" stop-color="#a297a1"/><stop offset="1" stop-color="#8b91b0"/></linearGradient><linearGradient id="e" x1="580.5" x2="583.4" y1="121.9" y2="108.6" gradientUnits="userSpaceOnUse"><stop offset="0" stop-color="#acc4c7"/><stop offset="1" stop-color="#76c4e5"/></linearGradient><linearGradient id="f" x1="444.3" x2="400.1" y1="395.2" y2="151.6" gradientUnits="userSpaceOnUse"><stop offset="0" stop-color="#fd8e0c"/><stop offset="1" stop-color="#ffda62"/></linearGradient><linearGradient id="g" x1="417.2" x2="389.3" y1="218.5" y2="110.7" gradientUnits="userSpaceOnUse"><stop offset="0" stop-color="#f7ce67"/><stop offset="1" stop-color="#fff499"/></linearGradient></defs><g fill="none" stroke-miterlimit="10" font-family="none" font-size="none" font-weight="none" style="mix-blend-mode:normal" text-anchor="none"><path fill="#eb6c21" d="M0 0c630-630 1575 315 945 945-223 223-722 223-945 0S-223 223 0 0z"/><path fill="#eb6c21" d="M51 249c13-4 27-5 40-6 8-1 27-7 35-4 2 1-3 3-5 4-32 17-35 69-29 104 3 15 25 18 37 26 34 23 71 41 106 61l115 67h-3c114 67 263 149 322 272 2 5 2 15 7 15 138-13 206-426 269-256 48 129 126 358 0 413C-226 1457-174 313 51 249z"/><path fill="#f09632" d="M0 470c1-17 33 13 47 23 71 53 160 90 209 163 57 84 162 213 95 289C-127 1485-5 628 0 470z"/><path fill="url(#a)" d="M0 638c1-8 15 5 22 8 112 46 307 193 274 299-30 94-228 71-296 0-71-74-8-205 0-307z"/><path fill="#5b93cb" d="m82 676 2 1c-20-8-6-3-2-1z"/><path fill="#eb6c21" d="M91 679c31 23 61 47 93 69l13 8c4 2 8 4 13 4 43 0 77 121 87 158 3 11 31 20 22 27-82 69-231-268-228-266z"/><path fill="#c18e81" d="m80 674 2 2c-20-8-13-15-2-2z"/><path fill="#948fa1" d="M22 646c0 9 0-15 0 0z"/><path fill="#fec06a" d="M351 945c0 1 1-37 0 0z"/><path fill="#f68326" d="M52 250c11-2 59-18 74-11 2 1-3 3-5 4-32 17-35 69-29 104 2 12 19 13 29 20 17 12 2 1-5 4-15 8 61 49 103 106 99 135 137 174 192 284l6 13c-35-59-42-102-9-16 24 61 50 122 67 185 1 5-11 1-17 1-35 0-80 23-106-1-7-7-35-190-45-209-73-135-126-136-291-256-5-4-16-2-16-8-5-67-53-199 52-220z"/><path fill="#fdda63" d="M1 265c13-16 108-33 125-26 2 1-3 3-5 4-32 17-35 69-29 104 2 12 19 13 29 20 17 12 2 1-5 4-20 10 31 31 47 47l20 20C163 420 41 266 1 328c-15 24-1 115-1 86 0-49-31-111 1-149z"/><path fill="url(#b)" d="M945 532c48 129 76 298 0 413-50 76-181 1-271 0-44 0 9-89 9-133 0-97 244-328 262-280z"/><path fill="url(#c)" d="M729 943c4-2 1-9 3-14 29-84 81-126 160-164 17-8 47-46 51-27 14 68 59 168 2 207-272 185-233 5-216-2z"/><path fill="#f68326" d="m700 761 1 1c-2 4-22 28-25 29 0-3 21-26 24-30zm36-40v1c-1 3-24 28-26 29h-1z"/><path fill="#e2421b" d="M535 626c18 17 83 70 111 110 12 16 10 54 30 52 54-5 73-80 110-119l28-26c-14 14-133 112-138 148-7 51 49 153-2 154h-73c-16 0 32 1 47-2 20-5-9-40-15-60-10-37-13-72-29-107-7-16-47-120 4-71 18 17 35 37 44 49 6 7 20 30 16 22-24-55-52-70-107-128l-26-22z"/><path fill="#50ace4" d="M0 0c303-86 637-68 945 0 68 15 4 139 0 208 0 6-8 9-12 14-37 43-59 71-90 118l-29 47c-3 4-5 17-7 13-8-15-14-84-23-108-42-111-158-157-230-176-192-50-280 63-432 126-4 2-66 5-91 12-11 3-31 25-31 14C-3 179-86 24 0 0z"/><path fill="#72cdf3" d="M0 0c248-48 506 0 759 0 22 0-44-2-66 1-16 2-25 29-32 29-12 0-16 19-27 26-21 13-85 10-128 16-143 19-345-5-503-3-6 0-2 13-2 19l-1 60C0 99-48 9 0 0z"/><path fill="#5b93cb" d="M594 122c-44-19 69 0 81 6 52 25 114 64 142 117 7 13 14 28 18 42 2 6 5 28 10 23 29-25 51-70 78-99 20-22 43-127 22-3-3 19-60 68-66 77-18 26-33 51-49 77-8 13-16 51-23 38-8-15-14-84-23-108-35-93-113-128-188-161-3-2 14 0 11-2-14-8-1-2-13-7z"/><path fill="#c18e81" d="M732 203c10 15 33 6 5-8h3c24 0 42 55 56 72 8 9 19 70 22 59 7-27 11 36-4 61-3 4-5 17-7 13-6-13 5-29 2-43-15-64-55-128-106-169-3-3 27 12 29 15z"/><path fill="url(#d)" d="M773 230c2 2-1 6 0 9 4 15-24-38 0-9z"/><path fill="#948fa1" d="M783 243c16 25-20-31 0 0z"/><path fill="#9a9dac" d="M592 123c6 1-23-7-17-7l21 1 38 7c48 7 133 84 139 98 2 6 14 15 13 17-5 11-33-45-49-45-8 0 20 26 13 21-49-37-171-95-158-92z"/><path fill="#948fa1" d="M742 206c-2-3-9-11-6-9 6 3 7 10 6 9z"/><path fill="#5b93cb" d="M713 167c38 33-3-2 0 0z"/><path fill="#948fa1" d="M809 312c-5-4-11-25-6-20 6 6 17 29 6 20z"/><path fill="#b7cab9" d="M145 223c10 2 37-12 29-7-43 26-46 23-83 27-19 2-77 6-90 22l-1 3c-15-40 115-50 145-45z"/><path fill="url(#e)" d="m575 108 50 13c9 2-19-5-28-4-17 2-42-14-22-9z"/><path fill="#72cdf3" d="M294 138h1c4-3 21-9 26-11 34-11 70-16 106-19h10l11-1 16 1c12-1 23-1 35 1l5-2c3 0 6 2 9 1l9-3c9-1 18 0 27 1 5 0 23 0 26 2v1c-13-2-22-1-34 0h-38c-65-4-131 4-193 23zM1 243c10 0 12-4 19-8h11c4-1 12-5 15-4l-13 4c-11 0-23 11-33 10v-13c2 2 1 8 1 11zm48-13c-3-2-4 0-6-1v-1l6-1 33-2h11c-4 2-35 2-44 5z"/><path fill="url(#f)" d="M747 232c19 28 46 64 50 100 1 6-6-9-10-14-7-9-19-22-27-27-12-8-58 2-82 15-7 4-62 70-82 55-13-10-9-34-22-43-15-10-35-6-53-9-73-10-135 44-204 62-35 9-141-31-166 7-19 28 56 38 84 56 21 14-53-28-92-52-58-35-67-38-42-129 5-17 33-15 49-23 50-25 491-158 597 2z"/><path fill="url(#g)" d="M607 129c3 2-14 0-11 2 10 5 65 10 65 27 0 8-15-6-23-8-40-10-81-17-122-15-81 3-164 29-239 59-16 7-81 31-92 33s-44 10-35 3c28-21 57-38 86-57 19-12 266-107 371-44z"/><path fill="#f68326" d="M933 222c4-5 12-20 12-14 4 108 29 220 0 324-5 19-121 97-159 137-37 39-56 114-110 119-28 3-17-83-15-89 59-156 253-455 272-477z"/><path fill="#fec06a" d="M945 294c0 15 8-33-1-45-5-7-14 10-21 16l-38 38a585 585 0 0 0-78 97l28-47c19-32 112-193 110-59z"/><path fill="#f86736" d="m293 468 23 13 49 28c51 33 104 63 153 100 42 31 77 70 114 107 5 5 6 20 13 17 5-2 14-34 18-42 8-14-5 34-17 45-4 4-7-10-11-14l-100-96c-16-15-36-27-54-40-44-31-88-58-134-85h3l-57-33z"/></g></svg>