<svg xmlns="http://www.w3.org/2000/svg" width="945" height="945"><defs><linearGradient id="a" x1="527" x2="367.3" y1="321.4" y2="734.3" gradientUnits="userSpaceOnUse"><stop offset="0" stop-color="#ff6650"/><stop offset="1" stop-color="#8b2b7b"/></linearGradient><linearGradient id="b" x1="966.2" x2="307.4" y1="200.2" y2="121.8" gradientUnits="userSpaceOnUse"><stop offset="0" stop-color="#2968a8"/><stop offset="1" stop-color="#71b3e3"/></linearGradient><linearGradient id="c" x1="367.9" x2="-1.5" y1="122.2" y2="112.7" gradientUnits="userSpaceOnUse"><stop offset="0" stop-color="#6cafe2"/><stop offset="1" stop-color="#8fcdfb"/></linearGradient><linearGradient id="d" x1="454" x2="485.9" y1="909.1" y2="611.8" gradientUnits="userSpaceOnUse"><stop offset="0" stop-color="#0e4a71"/><stop offset="1" stop-color="#6e4480"/></linearGradient><linearGradient id="e" x1="671" x2="652.5" y1="318.6" y2="400.3" gradientUnits="userSpaceOnUse"><stop offset="0" stop-color="#adc5ef"/><stop offset="1" stop-color="#f6f3ee"/></linearGradient><linearGradient id="f" x1="758.8" x2="727.3" y1="396.4" y2="480.6" gradientUnits="userSpaceOnUse"><stop offset="0" stop-color="#eea056"/><stop offset="1" stop-color="#f3bf65"/></linearGradient><linearGradient id="g" x1="802.6" x2="838.7" y1="565.8" y2="482.6" gradientUnits="userSpaceOnUse"><stop offset="0" stop-color="#ea5f4e"/><stop offset="1" stop-color="#e9845a"/></linearGradient></defs><g fill="none" stroke-miterlimit="10" font-family="none" font-size="none" font-weight="none" style="mix-blend-mode:normal" text-anchor="none"><path fill="url(#a)" d="M0 0c630-630 1575 315 945 945-223 223-722 223-945 0S-223 223 0 0z"/><path fill="url(#b)" d="M0 0c537-99 1171-274 945 396-14 40-82-20-124-29-68-14-149-61-219-65-72-4-145-3-216-16-5-1-11-1-16-4-36-21-75-60-118-68-83-16-187 15-252-40C-44 136-57 11 0 0z"/><path fill="url(#c)" d="M0 0c241-130 339-65 341 65 1 50-13 108 21 148 3 3 14 7 10 6-25-7-49-19-73-27-16-5 29 51 12 49-20-3-39-23-59-27-83-16-187 15-252-40C-44 136-51 28 0 0z"/><path fill="url(#d)" d="m0 425 1 36c0 33-10 68 1 99 12 34 133 94 161 94 118 0 250 39 368 60 82 14 167 11 250 20 50 5 112 26 162 17 5-1 2-19 2-14 1 69 68 193 0 208-308 68-669 152-945 0-152-84 0-347 0-520z"/><path fill="#193e64" d="M0 705c0-18-6 38 2 54 6 12 28 6 36 17 15 20 47 58 69 73 76 50 308 56 398 57 133 1 266 3 399 8 10 0 32 8 39 5 4-2 2-17 2-13 1 13 13 38 0 39-315 13-640 78-945 0-78-20 0-160 0-240z"/><path fill="url(#e)" d="M370 282c-9-12 29 8 44 11 62 11 125 6 188 9 49 3 125 46 167 58 47 13 149 1 176 36s13 89 0 131c-4 13-27-2-41-2-20 0-42 7-61 0s-29-28-46-38c-133-74-417-193-427-205z"/><path fill="url(#f)" d="M557 372c12 3 25-1 37 1 2 0 429 46 351 154-8 11-27-2-41-2-74-1-382-162-347-153z"/><path fill="#efbaa6" d="M589 370c11 3-23 2-34 2-4 0-9 5-12 3-10-8 19-13 46-5z"/><path fill="url(#g)" d="M674 435c39 18 136 78 169 90 32 11 84-27 102 2 11 18 1 43 0 65l-3-2c-36-17-69-22-100-22-46 0-97-50-126-50-2 0-3-6-1-6 16 0-10-3-2-6 7-2-10-2-12-10-4-12 15-30 5-38s-44-28-32-23z"/><path fill="#e9705f" d="M297 333c4-1 11 4 12 4 7-2 13 0 19 3 7 3 8 3 12 10l9 6h2c2 1 1 6 4 8 2 1 3 3 5 3l1-1c2 0 15 13 15 14 5 13 13 22 24 30l4 4c2-2-1-2-1-4 2 1 3 2 4 1l1-1a432 432 0 0 1 39 25l9 8-1-4h1l32 29c3 4 16 20 16 25l1-1c1 3-2 5 1 8v-4c4 7 8 14 5 22 0 3-3 6-6 7l-1-2c-3 3-4 3-7 1l-7-4-6 1-18-4c-5-1-11-5-17-6l-8-2v-1l-19-11v1c-5 0-5 1-8-3h-2v-1l-5-3c1 1-1 1-1 1h-2l-3-3 1-1-2-2v2c-4-2-7-7-12-9l-31-18-1 2c-3 0-7-4-10-5-9-3-16-8-25-9l-9-4-11-4-13-2-15-9c-8-3-13-7-19-12l-14-8-2 2-2-3h-2l-10-5-5-5c-8-3-15-10-23-13l-5-5-3 1-1-2c-2 0-2-1-3-2h-3v-1h5l-8-6-1-1-5-4h3l9 1c-4-2-14-11-18-15l14-1c2-14 59-11 69-3 2 2 10-1 14 1 2-2 13-1 16-1l10-5c5-3 4-4 6-8zm210 152c2 1 8 14 9 17zm-14-16 2 1c3 4 9 8 9 13zm21 50 5 1c-2 0-3 1-5-1z"/></g></svg>