<svg xmlns="http://www.w3.org/2000/svg" width="1024" height="1015"><defs><linearGradient id="a" x1="685.3" x2="566.9" y1="852.2" y2="392.9" gradientUnits="userSpaceOnUse"><stop offset="0" stop-color="#0d42ad"/><stop offset="1" stop-color="#127cdf"/></linearGradient><linearGradient id="b" x1="513.5" x2="509.9" y1="-8.7" y2="172.6" gradientUnits="userSpaceOnUse"><stop offset="0" stop-color="#006dc0"/><stop offset="1" stop-color="#299cd9"/></linearGradient><linearGradient id="c" x1="431.3" x2="430.6" y1="156.2" y2="243.4" gradientUnits="userSpaceOnUse"><stop offset="0" stop-color="#339cdb"/><stop offset="1" stop-color="#8ab7db"/></linearGradient><linearGradient id="d" x1="336.5" x2="343.5" y1="538.3" y2="225" gradientUnits="userSpaceOnUse"><stop offset="0" stop-color="#efe0ad"/><stop offset="1" stop-color="#a2b9d8"/></linearGradient><linearGradient id="e" x1="204.4" x2="203.2" y1="577" y2="562.7" gradientUnits="userSpaceOnUse"><stop offset="0" stop-color="#004dd4"/><stop offset="1" stop-color="#016cde"/></linearGradient><linearGradient id="f" x1="165.3" x2="183.3" y1="630" y2="654.8" gradientUnits="userSpaceOnUse"><stop offset="0" stop-color="#c2ccd5"/><stop offset="1" stop-color="#adc2e4"/></linearGradient><linearGradient id="g" x1="853.5" x2="885.1" y1="1028" y2="784" gradientUnits="userSpaceOnUse"><stop offset="0" stop-color="#001c61"/><stop offset="1" stop-color="#287ab8"/></linearGradient><linearGradient id="h" x1="901.6" x2="903.5" y1="808.4" y2="627.4" gradientUnits="userSpaceOnUse"><stop offset="0" stop-color="#4780b3"/><stop offset="1" stop-color="#86b8ce"/></linearGradient><linearGradient id="i" x1="969.3" x2="902.5" y1="707.5" y2="551.4" gradientUnits="userSpaceOnUse"><stop offset="0" stop-color="#639fbd"/><stop offset="1" stop-color="#c1d8e1"/></linearGradient><linearGradient id="j" x1="881.9" x2="874" y1="229.9" y2="196.4" gradientUnits="userSpaceOnUse"><stop offset="0" stop-color="#3695c2"/><stop offset="1" stop-color="#007fca"/></linearGradient><linearGradient id="k" x1="792.8" x2="828.5" y1="182.7" y2="256.1" gradientUnits="userSpaceOnUse"><stop offset="0" stop-color="#d2d8dc"/><stop offset="1" stop-color="#7eb6df"/></linearGradient><linearGradient id="l" x1="552.9" x2="543.8" y1="334" y2="324.2" gradientUnits="userSpaceOnUse"><stop offset="0" stop-color="#70a8db"/><stop offset="1" stop-color="#2079df"/></linearGradient><linearGradient id="m" x1="216.2" x2="220.7" y1="856.5" y2="640" gradientUnits="userSpaceOnUse"><stop offset="0" stop-color="#427a98"/><stop offset="1" stop-color="#8cbcde"/></linearGradient><linearGradient id="n" x1="936.4" x2="974.5" y1="307.1" y2="365.8" gradientUnits="userSpaceOnUse"><stop offset="0" stop-color="#31c3cf"/><stop offset="1" stop-color="#00a9d9"/></linearGradient><linearGradient id="o" x1="743.5" x2="737.3" y1="348.2" y2="365.3" gradientUnits="userSpaceOnUse"><stop offset="0" stop-color="#67aec1"/><stop offset="1" stop-color="#3897c5"/></linearGradient></defs><g fill="none" stroke-miterlimit="10" font-family="none" font-size="none" font-weight="none" style="mix-blend-mode:normal" text-anchor="none"><path fill="url(#a)" d="M1024 0C1707 677 683 1692 0 1015-240 777-338-1350 1024 0z"/><path fill="url(#b)" d="M0 0c330-87 687-53 1024 0 610 95-233 188-344 237-30 13-65-2-98-1-137 6-267-5-403-3-59 1-127-28-177 4-9 6-2 44-2 33C0 180-87 23 0 0z"/><path fill="url(#c)" d="M1023 135c1-8 9 23 1 25-113 32-236 30-344 77-30 13-65-2-98-1-176 8-350-5-526-1-18 0-39-8-54 2-9 6-2 44-2 33 0-45-3-180 1-135 4 42 148 20 193 21 273 8 827-1 829-21z"/><path fill="url(#d)" d="M2 237c18-12 558 0 580-1l70-3c11 0 38-9 33 1-10 19-56 31-73 44-127 97-201 187-324 290-59 49-114 107-183 140-34 16-96 81-105 44-53-221-7-509 2-515z"/><path fill="#005dd3" d="M288 568C170 667 24 780 0 752c-200-229 306-199 288-184z"/><path fill="url(#e)" d="M229 561c19-1 65-11 56 6-6 11-18 16-27 24l-15 14 35-34c5-5-13 2-20 3l-35 4c-59 4-119 10-178 10l23-1 71-7c15-1 62-18 90-19z"/><path fill="#347cc5" d="M285 567c-16 10-37-7-56-6-36 2-72 16-108 19-6 0 13-3 19-4l68-14c4-1 167-49 77 5z"/><path fill="url(#f)" d="M330 529c-58 54-121 103-183 153-37 30-111 56-147 70v-3c126-60 352-240 330-220z"/><path fill="#00319e" d="M0 743c31-9 57-21 87-34l26-14 6-3c0 2-24 14-27 17l6-1c26-16 55-33 79-52h1c-47 37-103 68-159 87l-19 6zm223-159h9l-8 2c-2 0-5 1-7-1h1z"/><path fill="#1395cd" d="M0 483c33-67 194 22 216 36 5 3 2 10 15 17 4 2-11 11-7 10l72-10c9-1 31-12 27-4-7 15-264 51-278 52-15 1-39 18-45 4-14-32-15-74 0-105z"/><path fill="#52a3de" d="M97 465c27 8 104 32 126 63 3 5-5 19 1 18l72-10c9-1 31-12 27-4-6 13-304 61-323 56-6-1 1-16 7-17l23-4c3 0 180-18 161-43-71-94-120-67-94-59z"/><path fill="#1395cd" d="m144 567 114-21c5-1 21-4 16-2-52 17-116 28-168 35-41 6-21-1 38-12z"/><path fill="#59a1c6" d="M294 523c9-2-36-1-27-3 23-6 75-4 77-6l49-48-26 23 61-58-32 34-48 47c-21 20-51 24-124 34-4 1 57-20 70-23z"/><path fill="#347cc5" d="M484 379c15-12-11 9 0 0z"/><path fill="#59a1c6" d="M635 265c7 7-7-7 0 0z"/><path fill="#0e3c76" d="m256 807-2 3c-3 13 21 27 31 29 63 15 132 55 197 66 24 4-18-124-12-135 13-22 51-7 77-10 81-8 158-24 238-40 6-1 20-8 18-2-27 92-98 166-109 264-2 18 60 26 43 31C337 1127-84 1208 2 852c4-15 31 0 46-1 69-3 193-33 208-44z"/><path fill="#000e4c" d="M0 975c1-6-2 14 2 19 3 4 63-7 67-7 55-2 110-3 165-1 15 1 22-23 37-28 64-24 171-3 228 19 65 26-7-146 1-162 8-15 145-9 158-10 32-2 54-6 88-11 3 0 8-3 8 0 0 13-84 171-59 199 3 3 42 20 42 20-272 78-738-25-737-38z"/><path fill="url(#g)" d="M1004 509c7-7 20-31 20-21 4 176 86 374 0 527-48 86-197 1-295 0-32 0-35-56-18-101 51-138 272-385 293-405z"/><path fill="url(#h)" d="M1004 509c7-7 20-31 20-21 4 112 1 224 0 336 0 10-10-23-20-24-42-3-121-3-161 31-2 2 8-49 5-48-11 5-63 17-70 10-8-8 3-23 9-32 56-81 196-232 217-252z"/><path fill="url(#i)" d="M1022 685c-4 9-23-11-22-21 6-54-32-33-69-8-9 6-94 64-99 60s5-12 9-17c37-52 227-120 181-14z"/><path fill="#347cc5" d="M942 569c9-5-13 17-19 25-44 57-92 111-132 171-4 6-4 18 2 22 16 9 45-8 63-3 9 2 3 23 12 24 25 3 65-5 91-8 22-2 64-29 65-7 0 10 2 21 0 31s-10-23-20-24c-42-3-121-3-161 31-2 2 8-49 5-48-30 14 18-170 94-214z"/><path fill="#89bac1" d="M1024 160c245 76-101 173-119 178-50 13-105 5-155 21-8 2 14-10 20-15 17-15-82 73-7-2 8-8-19 10-29 15-17 9-34 16-51 23-14 6 17-17 24-23l-13 7-36 18c-50 23-101 46-153 62-29 9-57 22-85 34-92 40 49-84 64-99 60-57 418-257 540-219z"/><path fill="#59a1c6" d="M1024 194c-2 28-55 8-83 10-45 4-90 17-133 29-96 27-131 76-199 90-5 1 4-10 8-13 95-83 409-139 407-116z"/><path fill="url(#j)" d="M927 202c-73 7-89 16-184 48-17 6-65 33-49 24 14-8 57-30 41-27-7 1-26 10-20 7 76-42 281-59 212-52z"/><path fill="#1395cd" d="M927 202c9-3-19 3-29 5-46 10-95 19-139 38-22 10 106-26 168-43z"/><path fill="#59a1c6" d="m683 357 81-36c7-3 26-13 20-9-10 6-23 9-32 16-5 4 22-9 18-5-13 13-33 17-49 27-6 4-24 11-17 12 19 2 70-31 55-19-20 16-122 72-52 14l-13 7-74 34c-66 29-134 51-200 80-32 14 162-73 263-121z"/><path fill="#62a7be" d="M749 286c-13 3-49 24-37 18l39-20c32-16-41 17-33 7 10-13 57-32 42-26s-59 29-45 21c7-4 14-9 22-12 50-18 100-33 150-49 14-5-31 3-44 11-10 7 23-3 35-4 19-2 39-3 58-9 5-2-23 1-17 0 34-7 70-7 105-7l-275 70z"/><path fill="#57bdcc" d="M932 324c8-3 90-54 92-48 17 49-108 53-92 48z"/><path fill="#62a7be" d="M1024 205c-7 26-55 0-82 3-37 5-75 7-111 19-164 55-181 89-181 83 0-35 191-87 255-100 30-6 123-21 119-5z"/><path fill="url(#k)" d="M1024 160c22-3-44 2-66 3-36 2-73 0-106 13-84 33-169 66-248 111-11 6 20-15 31-22 15-9 200-75 389-105z"/><path fill="url(#l)" d="M447 418c-20 17 36-40 57-56 36-28-9 14-57 56z"/><path fill="#62a7be" d="M846 329c5 4-8 11-12 16-7 8-21-9-31-6-18 5-35 14-53 20-10 3 17-11 27-15 14-5 30-7 45-9 8-1 18-11 24-6z"/><path fill="#57bdcc" d="M822 327c2 2 32 0 24 2-21 6-45-15-24-2z"/><path fill="#62a7be" d="M853 177c-48 13-95 31-141 49-24 10-46 25-69 37-67 34 283-105 210-86z"/><path fill="#1395cd" d="M420 444c-8 8 25-23 0 0z"/><path fill="#57bdcc" d="M999 256c-11-2 24 1 18-7-11-13-9 8-18 7z"/><path fill="url(#m)" d="M243 641c21 4 34 27 52 38 36 21 90 25 113 67 5 9 45 56 16 75-39 26-91-25-137-33-18-3-71 50-75 52L48 851c-15 1-42-14-46 1-4 18-2 73-2 55 0-52-24-109 0-155 27-52 208-117 243-111z"/><path fill="#89bac1" d="M366 742c48 39-80-13-109-23-21-7-43 18-65 17-48-3-68 6-117 15-32 6-38-34-73 2-47 48 307-58 364-11z"/><path fill="url(#n)" d="M977 316c16-5 47-37 47-20v81c0 14 5-30-2-43-1-2-64 33-71 35-3 1-52 1-17-4 0 0 20-7 13-8h-14c-16-1-31 1-47 2h-11c6-2 16 4 18-2 3-8-29-1-24-8 23-30 84-25 108-33z"/><path fill="#62a7be" d="M1023 296c2-3 4 8 1 9-14 8-8 1-1-9z"/><path fill="#52a3de" d="M378 513c-54 25 35-63 42-70 14-13-25 29-37 44-8 10 25-4 37-9 28-12-35 32-42 35z"/><path fill="#59a1c6" d="M879 342c4 0-6 6-10 7-12 3-30-6 10-7z"/><path fill="url(#o)" d="m750 359-39 17 23-11c5-3-21 7-17 3 4-5 11-8 17-11 8-5 38-9 16 2z"/><path fill="#52a3de" d="M768 430c300-21-229 184-249 160-14-17 24-36 36-54 9-13 37-67 66-75 48-13 97-28 147-31z"/></g></svg>