<svg xmlns="http://www.w3.org/2000/svg" width="2000" height="2000"><defs><linearGradient id="a" x1="348.4" x2="487.4" y1="1279.8" y2="1025.3" gradientUnits="userSpaceOnUse"><stop offset="0" stop-color="#841b1f"/><stop offset="1" stop-color="#f97d27"/></linearGradient><linearGradient id="b" x1="116.7" x2="127.4" y1="1117.6" y2="1011.5" gradientUnits="userSpaceOnUse"><stop offset="0" stop-color="#e3642d"/><stop offset="1" stop-color="#f7a251"/></linearGradient><linearGradient id="c" x1="1889.2" x2="1504.5" y1="1361.3" y2="529.9" gradientUnits="userSpaceOnUse"><stop offset="0" stop-color="#881f25"/><stop offset="1" stop-color="#fa7d34"/></linearGradient><linearGradient id="d" x1="991.6" x2="1012.2" y1="-23.9" y2="735.3" gradientUnits="userSpaceOnUse"><stop offset="0" stop-color="#031422"/><stop offset="1" stop-color="#132444"/></linearGradient><linearGradient id="e" x1="771.1" x2="528.2" y1="636.5" y2="350.1" gradientUnits="userSpaceOnUse"><stop offset="0" stop-color="#d44e29"/><stop offset="1" stop-color="#f7a742"/></linearGradient><linearGradient id="f" x1="549.7" x2="402" y1="553.1" y2="372.1" gradientUnits="userSpaceOnUse"><stop offset="0" stop-color="#f29b3b"/><stop offset="1" stop-color="#f8b649"/></linearGradient></defs><g fill="none" stroke-miterlimit="10" font-family="none" font-size="none" font-weight="none" style="mix-blend-mode:normal" text-anchor="none"><path fill="#a33924" d="M0 0c1333-1333 3333 667 2000 2000-471 471-1529 471-2000 0S-471 471 0 0z"/><path fill="url(#a)" d="M0 548c0-23 42-20 65-25 57-13 115-25 173-32 20-3 72-14 61 3-26 40-182 39-170 126 7 54 58 93 91 137 52 71 186 88 242 144 39 39 145 82 199 112 249 137 555 307 714 554 8 12 44 69 45 77 10 117 12 235 7 352 0 7-14 4-21 4-469 1-1080 337-1406 0-337-348-9-968 0-1452z"/><path fill="#4b1425" d="M770 1428c-5-9 5-43 6-48 8-62 48-119 118-125 53-5 112 34 160 56 6 3 135 55 158 77 228 219 230 238 215 608 0 7-14 4-21 4H676c-22 0 52 13 66-4 16-20 5-53-2-78-76-293-74-363-208-546-4-6 13 5 19 8l27 15c75 44 143 88 221 129 16 8 33 18 42 34l16 30c-27-59-66-121-87-160z"/><path fill="#7b2a4e" d="M1334 1512c12 12 21 26 31 40l10 15c-32-38-62-77-98-112-69-67 17 14 57 57z"/><path fill="#1f1221" d="M0 1272c0-35 263 75 328 82 52 6 96-14 145-14 0 0 19 4 16-3-4-8-22-25-15-20 57 40 117 107 136 169 44 144 92 286 130 432 7 25 18 58 2 78-14 17-44 4-66 4-225 1-523 165-676 0-165-178-1-485 0-728z"/><path fill="#7b2a4e" d="M494 1335c23 24 45 49 66 75 7 9-16-16-25-23-20-15-42-27-64-38-9-5-32 1-30-9 5-22 33 5 43 2 16-5-11-30 10-7zM606 1479c20 30-16-23 0 0z"/><path fill="#932e25" d="M318 858c-4-4 66 0 79 7l50 29 166 95c168 96 333 193 493 311 34 25 79 55 106 88 2 3-8 0-11-2-53-36-239-137-307-131-46 4-109 48-118 98-2 12-1 58-5 64-2 3 1 14-1 11-95-121-373-489-452-570z"/><path fill="#7b2a4e" d="M1187 1366c12 11-37-35 0 0z"/><path fill="#bc473e" d="M829 1111c8 8-20-9-30-15-2-1-8-20 30 15z"/><path fill="#a33924" d="M0 996c27-18 449 257 489 341 3 7-16 3-16 3-25 0-45 6-69 7-61 4-123-4-182-20-73-20-196-128-220-56l-2 1c-1-92-77-225 0-276z"/><path fill="url(#b)" d="M280 1155c11 7-21-16-33-21-21-10-43-20-66-24-14-3-171-9-178-4-16 13 0 41-1 62 0 5 27-184 278-13z"/><path fill="#bc473e" d="m373 1229-83-62c-6-5 12 8 19 11 6 3 71 55 64 51z"/><path fill="#e88631" d="M0 548c2-23 42-20 65-25 57-13 115-25 173-32 20-3 72-14 61 3-26 40-182 39-170 126 19 146 169 161 254 238 0 0-114-53-23 42 47 50 95 99 139 152 8 10 36 33 24 30-136-34-270-168-384-246-30-20-100-59-135-50-7 2-4 27-4 20-1-86-9-172 0-258z"/><path fill="#a33924" d="M0 548c5-9 19-7 28-11 67-26 139-37 210-46 20-3 72-14 61 3-18 27-59 27-89 40-3 1 6-7 3-8-2-1 9-2 7-2l-70 3c-17 0-91 38-130 42-3 0-4 5-7 7-5 3-11 17-13 12-6-12-6-28 0-40z"/><path fill="#95345b" d="m494 1335-20-18c-18-17-94-92 20 18z"/><path fill="url(#c)" d="M1835 657c55-69 154-293 165-206 63 512 185 1067 0 1549-71 185-396 1-594 0-7 0 21 3 21-4-4-133-17-267-33-399-2-18-33-28-29-45s57-97 52-120c-8-37-41-64-61-96-3-6 2-88 2-90 6-147 24-286 52-430 7-35 16-192 49-249 19-33 57-38 94-15 42 26 79 61 108 100 30 40 38 94 67 135 5 7 11-12 16-18l91-112z"/><path fill="#4b1425" d="M2000 1128c58 285 164 632 0 872-111 164-396 1-594 0-7 0 21 3 21-4-4-133-17-267-33-399-2-18-33-28-29-45 10-46 44-103 66-146 6-12-10 24-14 37-1 2 3-5 5-5 23-2 45 11 65 21 25 12 52 22 76 37 4 3 1 16 5 14 70-39 430-393 432-382z"/><path fill="#a33924" d="M2000 1645c0 21-1-41-4-62-3-23-102-48-112-50-84-21-172-49-257-64-14-2-35 31-38 29-10-5 16-16 23-25 1-2-6 5-6 3 5-23 33-34 50-50 63-60 346-315 344 219z"/><path fill="#bc473e" d="M1758 1330c2-2 1 5-1 7-8 9-214 226-145 136 1-1 103-105 146-143z"/><path fill="#de653b" d="M1847 1251c4-2-3 2 0 0z"/><path fill="#4b1530" d="M1431 1406c5-10-20 33-9 32 44-5 108 37 141 58 4 3 1 16 5 14 18-10 30-28 45-42l-7 8c-55 56-158 148-172 194-25 81 16 169 15 254 0 25-42 63-19 72 70 26 296-8 223 4-81 14-165 1-247 0-7 0 21 3 21-4-4-133-17-267-33-399-2-18-33-28-29-45 7-36 57-129 66-146z"/><path fill="#e88631" d="m1417 1425-10-16c-9-16-21-31-25-49-10-42-4-115 0-156 13-118 51-214 69-327 8-48 11-97 21-144 7-36 14-154 87-132 108 32 61 106 145 186 16 15 44-8 66-11 14-2-81 136-87 144-72 98-122 208-175 317-31 64-57 132-91 195-18 33-21-37 0-7z"/><path fill="#de653b" d="M1490 1272c2-7 23-51 27-60 43-89 87-176 135-263l1 2c0 3-4 9-6 12v1c-3 9-18 31-23 41l-25 46-16 39c-8 18-20 35-29 52l-26 52-20 43c-3 7-14 30-18 35zm345-615c51-72 106-141 165-206v167h-2c-3-8 0-41-2-46l-19 16-39 31c-10 9-25 15-35 23-12 11-23 27-35 36-2 2-27 12-28 12v-1l3-4c-2-4-2 2-3-4l11-13c7-21 22-35 35-53 14-19 26-41 41-60l43-52c6-7 24-27 27-33v-2c-7 3-23 24-28 30-43 48-82 100-122 151-4 4-7 6-12 8z"/><path fill="url(#d)" d="M0 0c643-176 1348-140 2000 0 356 76-180 654-230 720-7 9-14-18-20-28-79-142-206-251-315-371-53-58-236-93-294-93-323-1-452 14-750 216-29 20-57 45-92 50-20 3-41-6-61-3-71 11-140 29-210 46-10 2-27 21-28 11C-10 366-176 48 0 0z"/><path fill="url(#e)" d="M811 242c44-15 105-6 152-4l66 5c6 1 25 2 19 3-12 1-25-3-37-1-5 1 11 3 16 4 22 6 78 15 79 50 0 19-159 44-254 84-111 47-74 253-159 319-22 17-57 0-78 0-42 0-139 125-155 146-8 10-25 27-16 36 38 37 92 56 138 83 26 16 105 63 78 49-53-26-184-101-198-115-56-56-190-73-242-144-33-44-84-83-91-137-8-63 177-128 203-142 59-32 106-84 167-113 101-48 206-87 312-123z"/><path fill="url(#f)" d="M816 243c0 18-118 107-152 127-66 40-129 88-201 117-44 18-94 18-138 36-9 4-12 16-15 25-12 30 0 78-2 110-2 37-24 69-35 98-3 9 4 25-5 28-41 14-138-157-139-164-8-60 687-442 687-377z"/><path fill="#de653b" d="M238 768c-9-6 20 10 30 16l163 96c77 45 155 86 230 133 1 1 0 3-1 3-145-73-388-225-422-248z"/><path fill="#4b1425" d="m880 1140 23 14 102 68c4 3 9 12 13 9 3-2 1-35 22-30 23 5 46 12 67 21 11 5 20 13 28 21 37 37 229 263 248 263 3 0 17-42 23-52 7-11-10 25-15 37-9 20-7 72-26 61-65-37-101-110-153-164-94-99-311-234-332-248z"/><path fill="#4b1530" d="M909 231c77-2 155-3 232-3 72 0 229 36 293 92 2 2-9 2-9 2s-2 2-3 1l-10-4c-2-1-5 4-7 3-137-72-527-90-496-91z"/><path fill="#4b1425" d="M1716 642c-8-19 7 16 0 0z"/></g></svg>