<svg xmlns="http://www.w3.org/2000/svg" width="44" height="43" viewBox="0 0 44 43">
  <defs><clipPath id="clip_sgtveggie_07"><rect x="0" y="0" width="44" height="43"/></clipPath></defs>
  <g clip-path="url(#clip_sgtveggie_07)">
    <svg x="10.63" y="9.36" width="38.28" height="37.41" viewBox="522.7 163.9 315.9 367.2" preserveAspectRatio="xMidYMid meet" style="overflow:hidden">
      <defs>
        <!-- Mask to definitively punch out the center hole -->
        <mask id="holeMask2">
          <rect x="-1000" y="-1000" width="3000" height="3000" fill="white" />
          <g>
            <animateTransform attributeName="transform" type="rotate" from="0 761 335.5" to="360 761 335.5" dur="1.5s" repeatCount="indefinite" />
            <path fill="black" d="M737 337q8 20 27 18 14-1 19-15 1-11-8-20-9-4-19-6c-10-5-27 19-19 23"/>
          </g>
        </mask>
      </defs>

      <!-- Grouped and Animated Veggie Donut side of the graphic -->
      <g mask="url(#holeMask2)">
        <animateTransform attributeName="transform" type="rotate" from="0 761 335.5" to="360 761 335.5" dur="1.5s" repeatCount="indefinite" />
        <path fill="#32140f" d="M758 278c45-3 73 43 55 84-9 18-28 30-49 31-45 2-73-43-55-84q17-30 49-31m-21 59q8 20 27 18 14-1 19-15 1-11-8-20-9-4-19-6c-10-5-27 19-19 23" style="stroke-width:1"/>
        <path fill="#ddbc93" d="M707 335a54 54 0 1 1 27 47c-7-5-25-26-27-47m30 2q8 20 27 18 14-1 19-15 1-11-8-20-9-4-19-6c-11-1-24 22-19 23" style="stroke-width:1"/>
        <path fill="#c89a5d" d="M714 355c3 7 4 8 10 13l9 5 3 3 3 3h-4l-1 3q-15-9-22-24z" style="stroke-width:1"/>
        <path fill="#b57b3b" d="m731 375 2-2 3 3 3 3h-4l-2-2z" style="stroke-width:1"/>
        <path fill="#a87f55" d="m731 375 2-2 3 3-3 1z" style="stroke-width:1"/>
        <path fill="#c8a274" d="m724 368 9 5-2 2h-1l-1-3-2-1-3 1z" style="stroke-width:1"/>
        <path fill="#b18a61" d="m789 374 6-2q-4 2-4 4l1 3q-10 8-24 10l1-7 3-1 13-6c3 0 0 2 4-1" style="stroke-width:1"/>
        <path fill="#a87f55" d="m769 382 3-1 6 2-3 1 3 2-10 3z" style="stroke-width:1"/>
        <path fill="#c8a274" d="m771 388 4-4 3 2zm18-14 6-2q-4 2-4 4l1 3-8 5q0-5 6-7 1-1-1-3" style="stroke-width:1"/>
        <path fill="#b18a61" d="M795 372q6-3 9-8 7-9 10-21-3 23-22 36l-1-3z" style="stroke-width:1"/>
        <path fill="#c8a274" d="M735 379h3q4 6 11 6l1-4 5 1 4 7h-2q-12-1-23-7z" style="stroke-width:1"/>
        <path fill="#b18a61" d="m750 381 5 1 4 7h-2c-2-6-4-3-8-4z" style="stroke-width:1"/>
        <path fill="#c8a274" d="M755 382h14l-1 7h-9z" style="stroke-width:1"/>
        <path fill="#b18a61" d="M733 373q6 2 11 6l4 2h2l-1 4q-7 0-11-6h1l-3-3z" style="stroke-width:1"/>
        <path fill="#c8a274" d="m744 379 4 2 1 2h-1q-5 2-5-3z" style="stroke-width:1"/>
        <path fill="#b18a61" d="m707 335 7 20-2 3q-5-11-5-23" style="stroke-width:1"/>
        <path fill="#f7efcb" d="M760 284h2c6 0 28 6 33 11 9 8 11 14 14 25q7 26-10 45c-7 7-8 4-15 7-10 5-11 7-23 7-14 0-21-6-33-12-9-4-11-14-14-22-2-5-6-13-4-18l10-25c2-5 18-13 24-15zm-23 53q8 20 27 18 14-1 19-15 1-11-8-20-9-4-19-6c-8-5-24 20-19 23" style="stroke-width:1"/>
        <path fill="#eed8b1" d="m768 299 3-8-1 10 6 3 7-9q-1 6-6 10l7 5 8-7-7 9 5 8q6-3 13-3c-3 3-11 4-12 6l1 5c2 3 6 0 8 2l-8 2-1 7 7 1v1l-7 1-3 5 11 9-13-7-5 6h1l-1 1h-1l-9 5 1 7-3-6h-5l-1 1v-1h-1l-1 2v-2q-12 0-21-8l-7 6 5-7-5-7-1-2-2-16v-3l2-5-8-4c2-2 5 2 8 2l2-3 2-2 10-8 9-4h13zm-31 38q8 20 27 18 14-1 19-15 1-11-8-20-9-4-19-6c-9-2-23 22-19 23" style="stroke-width:1"/>
        <path fill="#f0dcad" d="m768 299 3-8-1 10h-1z" style="stroke-width:1"/>
        <path fill="#32140f" d="M745 310q16-11 34 1 12 12 8 29-4 12-15 16-12 5-23 0-10-6-15-18l-1-8zm-8 27q8 20 27 18 14-1 19-15 1-11-8-20-9-4-19-6c-13 2-19 16-19 23" style="stroke-width:1"/>
        <path fill="#c8a274" d="M745 310q16-11 34 1l-1 1 1 6-10-5q-8-3-14-2l-9 5-1-2v-1h1z" style="stroke-width:1"/>
        <path fill="#c89a5d" d="M769 313v-3l4-1 2 3h3l1 6z" style="stroke-width:1"/>
        <path fill="#b18a61" d="m746 313 4-4 5 2-9 5-1-2z" style="stroke-width:1"/>
        <path fill="#c89a5d" d="m734 338-1-8q2-12 12-20l1 3h-1v1l1 2c-8 6-11 9-12 19z" style="stroke-width:1"/>
        <path fill="#ddbc93" d="M779 311q12 12 8 29 0-13-8-22l-1-6z" style="stroke-width:1"/>
        <path fill="#f0dcad" d="m720 305 16 8-2 2zm-4 21 14-1v3zm16 18 1 2-12 6zm29 20 1-2h1v16z" style="stroke-width:1"/>
        <path fill="#ddbc93" d="M738 295q5 3 7 8-6-2-7-8" style="stroke-width:1"/>
        <path fill="#f0dcad" d="m782 355 8 11-9-10zm9-58c0 2-5 7-7 9-1-4 4-8 7-9m-62 56-7 6v-1c0-2 5-4 7-6m25-61 3 10h-2zm43 56q6 0 9 4-4 0-9-4m-74-15 3 1-6 1h-4zm16 28q-1 5-4 6h-1zm13 10-1 6-1-1z" style="stroke-width:1"/>
      </g>

      <!-- Sandwich/Fries paths (kept stationary outside the rotating group) -->
      <path fill="#32140f" d="M603 275c24-1 73 31 85 53q5 9 0 19c6 1 17 3 19 10 3 7-7 11-12 13l2 4q8 13-4 20-10 0-18-7c-3 5-14 19-19 6l-2-16q-7 4-15 1c-12-5-24-27-30-39-6-13-19-42-14-57q2-4 8-7" style="stroke-width:1"/>
      <path fill="#f3513e" d="M602 280q12-2 22 4 29 13 52 34l8 11q3 5 2 9c-2 14-13 24-24 32-24 15-35-6-45-24-7-13-23-48-18-63z" style="stroke-width:1"/>
      <path fill="#cd2d2c" d="M686 338c-2 14-13 24-24 32-24 15-35-6-45-24-7-13-23-48-18-63 2 12 9 32 15 43 3-3 11-9 14-9-1 5-8 10-12 13 5 9 12 22 19 29 5-2 15-11 17-11 0 5-10 13-14 15q7 5 16 3 17-5 27-20 2-6 5-8" style="stroke-width:1"/>
      <path fill="#fbdbd5" d="M602 280q12-2 22 4 29 13 52 34l8 11-8-9q5 6 5 10l-1 2c-2 0-11-11-14-14l-4-3q-15-13-34-22l-4-3c-5-2-14-5-17-8l-1-1z" style="stroke-width:1"/>
      <path fill="#d35841" d="M602 280q12-2 22 4 29 13 52 34l8 11-8-9q5 6 5 10c-11-18-37-34-56-43q-9-5-18-5l-1-1z" style="stroke-width:1"/>
      <path fill="#cd2d2c" d="m662 315 4 3c-8 7-8 10-18 15zm-38-25 4 3-10 7h-1l6-9z" style="stroke-width:1"/>
      <path fill="#73af62" d="M686 351c4 1 17 3 18 8-1 5-13 7-18 7 20 20 7 35-9 16l-4-5c-1 6-4 15-10 18-5 0-5-15-5-19 14-8 19-12 28-25" style="stroke-width:1"/>
    </svg>
  </g>
</svg>