<svg xmlns="http://www.w3.org/2000/svg" width="44" height="43" viewBox="0 0 44 43">
  <defs><clipPath id="clip_sgtveggie_04"><rect x="0" y="0" width="44" height="43"/></clipPath></defs>
  <g clip-path="url(#clip_sgtveggie_04)">
    <svg x="3.01" y="9.71" width="33.44" height="32.68" viewBox="838.6 -203.3 315.9 367.2" preserveAspectRatio="xMidYMid meet" style="overflow:hidden">
<defs><linearGradient id="b" x1="896.8" x2="943.8" y1="77.1" y2="295.6" gradientTransform="translate(97 -248)" gradientUnits="userSpaceOnUse"><stop offset="0" stop-color="#101c0d"/><stop offset="1" stop-color="#3b1117"/></linearGradient><linearGradient id="c" x1="925.2" x2="937.4" y1="102.6" y2="100.6" gradientTransform="translate(97 -248)" gradientUnits="userSpaceOnUse"><stop offset="0" stop-color="#3d6e2c"/><stop offset="1" stop-color="#608c4c"/></linearGradient><linearGradient id="d" x1="837" x2="845.5" y1="173.3" y2="216.7" gradientTransform="translate(97 -248)" gradientUnits="userSpaceOnUse"><stop offset="0" stop-color="#71a64b"/><stop offset="1" stop-color="#97c366"/></linearGradient></defs><path fill="url(#b)" d="m1016-176 7 1c4 0 14-1 13 5l-1 25c-1 23-2 50 4 73 8-27 6-60 9-87 1-9 17-8 19 0 0 3 9 3 9 8l-5 37c-2 7-5 42-3 47 5-2 13-50 15-58l2-6c4-1 6 2 9-1q6-3 12 2c4 6 1 14-1 20q-9 29-14 59c22 35 2 76-36 85q-13 1-20 12-2 4-7 6-6-2-5-8c-7-11-20-12-31-16-8-4-21-11-25-19-14-25-28-48-50-67q-4-3-4-8t3-8l17-5c10 2 25 27 31 34 5-7 7-9 14-15l-4-27c-5-21-12-43-12-64 0-5 15-12 18-6 2 5 9 0 11 5 3 8 7 79 16 79l1-9c3-28-2-56-4-83-1-8 6-10 12-11" style="stroke-width:1"/><path fill="#712338" d="M1017-70c16-3 52 4 64 15 16 13 19 38 10 55-9 20-24 26-43 32q-8 2-14 7l-6 9v-2c-2-14-22-18-33-22-33-12-43-46-22-74 11-14 26-18 44-20" style="stroke-width:1"/><path fill="#b02749" d="M1049 27c-15 6-21 5-36-1-14-6-29-8-39-22-14-18-8-46 10-59q26-16 56-9c10-1 24 4 33 8 23 10 25 48 8 64q-14 14-32 19" style="stroke-width:1"/><path fill="#971e3e" d="M1049 27c-15 6-21 5-36-1-14-6-29-8-39-22-14-18-8-46 10-59 13-9 33-13 49-11l-9 2c-12 1-35 10-43 19-15 17-12 47 10 58 9 5 18 5 27 9q7 5 14 5zm-9-91c10-1 24 4 33 8 23 10 25 48 8 64l5-13q5-18-4-34c-8-13-23-19-37-23z" style="stroke-width:1"/><path fill="#9d1d38" d="m1033-66 7 2 5 2-21-2z" style="stroke-width:1"/><path fill="#971e3e" d="M1024-45c12-2 16 1 27 5 23 7 16 36-3 43q-6 3-13 1c1-4 10-5 14-8q8-3 9-11c3-15-8-21-19-24l-15 1c-20 5-32 25-8 36l11 4 1 1c-3 2-16-1-19-2-8-3-14-13-12-21s8-11 11-18v-1q8-5 16-6" style="stroke-width:1"/><path fill="#971e3e" d="M1021-59c8-1 22 1 28 6v1c-3 2-17-1-22-1-23 0-48 17-41 42q2 12 14 17l20 8q-15 1-28-6c-15-10-18-33-8-47 7-10 25-18 37-20m35 8q9 1 16 6c14 9 14 33 4 45q-13 16-34 19l-5-2c1-2 8-2 10-4 11-5 25-12 28-25q6-19-13-33z" style="stroke-width:1"/><path fill="#971e3e" d="m1029-29 12 2c12 9 0 14-7 16-6 1-19-1-16-9q3-8 11-9" style="stroke-width:1"/><path fill="#95ba5d" d="M1008-168q3-5 8-3c3 2 3 10 4 15h1c2-4 2-21 9-15l2 5-1 13v55l3 24-23 1 2-22v-9z" style="stroke-width:1"/><path fill="#f7efcb" d="M1014-108c5 4 11 10 17 10l3 24-23 1 2-22z" style="stroke-width:1"/><path fill="url(#c)" d="M1020-156c2-4 2-21 9-15l2 5-1 13-1 33c-6-7-10-27-10-36" style="stroke-width:1"/><path fill="#73af62" d="M966-150q4-4 10-5l1 7 3-2h7c2 3 5 42 6 47v3l3 11c-7 8-13-4-19-3l-3-12q-6-23-8-46" style="stroke-width:1"/><path fill="#547a3c" d="M980-150h7c2 3 5 42 6 47-6-7-11-36-13-47" style="stroke-width:1"/><path fill="#55692f" d="m977-148 3-2c2 11 7 40 13 47v3l-3-2c-6-6-12-38-13-46" style="stroke-width:1"/><path fill="url(#d)" d="m929-73 5-2c6 6 20 20 23 27l1 2 5 6c-4 10-5 14-5 26l-10-17-12-14-18-19q-2-1-1-4t6-5l3 1z" style="stroke-width:1"/><path fill="#6a9140" d="m929-73 5-2c6 6 20 20 23 27l-2 4c-9-13-16-18-26-29" style="stroke-width:1"/><path fill="#f7efcb" d="M948-31c11-2 7-8 10-15l5 6c-4 10-5 14-5 26z" style="stroke-width:1"/><path fill="#55692f" d="m926-72 3-1c10 11 17 16 26 29l-1 3h-1q-7-11-17-19z" style="stroke-width:1"/><path fill="#bdc87b" d="M917-68c5 3 18 16 20 21l-1 2-18-19q-2-1-1-4" style="stroke-width:1"/><path fill="#95ba5d" d="M1053-161q6-2 9 3l1 6h1l1-1q4-2 7 3c1 5-5 29-6 36v2l-2 15q-7-5-15-13z" style="stroke-width:1"/><path fill="#547a3c" d="M1065-153q4-2 7 3c1 5-5 29-6 36-3-8-1-28-1-39" style="stroke-width:1"/><path fill="#55692f" d="m1062-158 1 6h1l1-1c0 11-2 31 1 39v2q-6-9-4-19z" style="stroke-width:1"/><path fill="#95ba5d" d="M1097-129q7 1 7 7l-9 32-1 4v1l-2 7-7-2-6-5 7-35q-1-5 3-7l4 1h1z" style="stroke-width:1"/><path fill="#95ba5d" d="m1086-120 1 9 2 12 4 13v1l-2 7-7-2-6-5z" style="stroke-width:1"/><path fill="#73af62" d="m1090-99 4 13v1l-6 4-2-1c-1-4 3-13 4-17" style="stroke-width:1"/><path fill="#55692f" d="M1097-129q-5 12-5 25c1 3 1 11 3 14l-1 4-4-13-2-12-1-9h-1q-1-5 3-7l4 1h1z" style="stroke-width:1"/><path fill="#547a3c" d="M1086-120q-1-5 3-7l4 1c-3 5-1 9-5 15z" style="stroke-width:1"/><path fill="#f7efcb" d="M1049-110q8 8 15 13l-1 29-20-5q5-18 6-37m-72 18c6-1 12 11 19 3l5 18c-9 3-12 4-20 9q0-15-4-30m102 7 6 5 7 2-4 24c-6-6-8-7-16-11z" style="stroke-width:1"/>
    </svg>
  </g>
</svg>
