<svg xmlns="http://www.w3.org/2000/svg" width="44" height="43" viewBox="0 0 44 43">
  <defs><clipPath id="clip_sgtkorea_02"><rect x="0" y="0" width="44" height="43"/></clipPath></defs>
  <g clip-path="url(#clip_sgtkorea_02)">
    <svg x="3.72" y="6.34" width="38.28" height="37.41" viewBox="75.925 -343.15 310.875 387.2" preserveAspectRatio="xMidYMid meet" style="overflow:hidden">

<defs>
<linearGradient id="a" x1="373.4" x2="378.2" y1="247.3" y2="242.3" gradientTransform="translate(-180.99 -373.55)" gradientUnits="userSpaceOnUse">
<stop stop-color="#1f1b12" offset="0"/>
<stop stop-color="#3e3324" offset="1"/>
</linearGradient>
</defs>













<path d="m214.11-298.55c19-1.5 40.2 2.2 55.5 13.9 13.4 10.3 13.2 21.8 12.7 37-0.6 15.4 2.5 21.6-7.9 34.4 8.6 8.9 8.2 18.8 8 30.3-0.2 11.7 0.9 20.6-4 31.5 7 12.4 3.5 26.5 4.2 40.2 1.4 27.599-31.4 38.499-53.4 39.899-28.4 3-71-9.5-67.7-44.299 1.5-15.7-3-20 4.2-36-6.6-11.5-3.6-24.5-4.3-37.2-0.5-10.6 1.8-16 8.1-24.2-8.9-11.4-8.1-17.3-7.9-31.4 0.2-12.2-2-23.3 6.4-33.6 11.5-13.8 29-18.5 46.1-20.4" fill="#131d41"/>
<path d="m221.61-291.65c16.3 0.5 33.3 3.1 46 14.2 8.2 7.1 11.4 19.2 4.8 28.5-10.7 15-32.4 19.7-49.6 20-16.214 0.56-32.153-4.3-45.3-13.8-10.6-8.7-12.4-22.5-2.4-32.7 12.2-12.6 29.7-15.4 46.5-16.2" fill="#fefdfc"/>
<path d="m191.21-269.35 1.1-2.9c5.4-12 16-6 25.8-11 4-2.1 10.2 1.3 14.4 3.2 0.2 1.8 0.1 3 0 4.8l-1.2 6c4.4 0.2 7 0.8 10.2 4.4l1 1c1.1 2.6 1.4 3.7 0.6 6.5 4.1 1.4 5.7 2.7 7.9 6.7l-0.3 1.6-0.2 0.6c-1.5 4.7-4 5-8.5 7.3l-5.7-1.7-2.8 2.8c-5.6 2.9-22.4 4.6-26.5-1.5-2.5-4.7-5.7-1.8-8.4-2.6-5.1-1.6-16.1-11.7-15.3-17.7 0.3-3 5.2-4.8 7.7-6.3l0.2-1.2z" fill="#4b311c"/>
<path d="m191.21-269.35 1.1-2.9c5.4-12 16-6 25.8-11 4-2.1 10.2 1.3 14.4 3.2 0.2 1.8 0.1 3 0 4.8l-1.2 6c-1.5 1-2.2 1-4 1.5-1.3 0.4-1.9 0.3-3 1l-1.3 1-1.7 0.7c-4-0.6-5.6-1.1-9.3 0.9-0.8-0.4-1.7-1.8-2.3-2.6-1.4-0.7-3-1.9-4.2-2.7l-0.2-0.5c-3 0-4 0.2-6.6-1-2.1 1-3.3 1.7-5.6 2.6l-1.9-1z" fill="#13431c"/>
<path d="m215.01-276.45c1.8-1.4 1.5-1.7 3.9-1.5 4.5 0.3 8.3 4.6 11.2 7.7-1 0.9-1 0.8-2.3 1l-0.4 1.5c-1.4 0.4-2 0.3-3.2 1l-1.2 1-1.7 0.7c-4-0.6-5.6-1.1-9.3 0.9-0.8-0.4-1.7-1.8-2.3-2.6-1.4-0.7-3-1.9-4.2-2.7l-0.2-0.5c-3 0-4 0.2-6.6-1 6.5-5.4 11.3-3.2 16.4-5.5" fill="#13431c"/>
<path d="m224.21-266.65c-1.8-0.8-6.7-3.4-7.6-5 2.5-3.4 8.8 0.4 11.2 2.4l-0.4 1.5c-1.4 0.4-2 0.3-3.2 1m-18.9-3.2c2.3-1.1 4-2 6.5-2.4l0.8 0.4c0 2-1.8 3.5-3 5.2-1.3-0.7-2.8-1.9-4-2.7l-0.3-0.5zm6.9-8.6c5.2-1.9 10.4-3 15.8-1 4 1.5 3.9 6.1 2.1 9.3-3-3.1-6.7-7.4-11.2-7.7-2.4-0.2-2.1 0.1-3.8 1.5-2.1-0.9-1.7-0.4-3-2" fill="#407142"/>
<path d="m212.21-278.55c1.2 1.7 0.8 1.2 2.9 2.1-5.1 2.3-9.9 0.1-16.4 5.4-2.1 1.2-3.3 1.8-5.6 2.7 3.7-9.8 9.2-9.5 18-9l1.1-1.2z" fill="#407142"/>
<path d="m231.31-269.35c4.4 0.3 7 1 10.2 4.5l1 1c1.1 2.6 1.4 3.7 0.6 6.5-1.6 0.6-3.3 1.4-5 1.6-3.9 4-7.7-2.5-15.2-1.6l-0.5 0.4c-2-1-1.2-0.3-2.4-2-0.2-2.7 1.4-4.7 3-6.7l1.2-1c1.2-0.8 1.8-0.7 3.2-1 1.7-0.5 2.4-0.6 3.9-1.7" fill="#df6241"/>
<path d="m231.31-269.35c4.4 0.3 7 1 10.2 4.5l1 1c1.1 2.6 1.4 3.7 0.6 6.5-1.6 0.6-3.3 1.4-5 1.6 0.667-1.2 1.1-2.53 1.3-4-0.746-1.79-1.833-3.42-3.2-4.8-4.4-2-6.5-1.4-10.6 1-2 2-2.9 2.7-3.1 5.6l0.4 0.6-0.5 0.4c-2-1-1.2-0.3-2.4-2-0.2-2.7 1.4-4.7 3-6.7l1.2-1c1.2-0.8 1.8-0.7 3.2-1 1.7-0.5 2.4-0.6 3.9-1.7" fill="#c93539"/>
<path d="m225.61-263.55c4-2.4 6.2-3 10.6-1 1.8 2 2 2.4 3.2 4.7-1.2 0.9-3 2.5-4.3 3.4l-3.2-0.5h-0.4l-0.2-0.7c1.6-1 2.3-0.9 4.3-1h0.7c0.5-1.6-0.2-2.2-0.8-4.1-2.8 0.6-8 3.6-10 1.8l0.1-2.6z" fill="#eb7f54"/>
<path d="m205.31-266.05 0.6 0.5 3.7 3.8c-0.5 2.9 0.6 4.9-1.3 8.1-2.318 1.54-5.018 2.4-7.8 2.5-4.8-2.6-7.1-4.2-9.8-9.3 5.5-4.4 9.2-3.4 14.6-5.6" fill="#f3c43b"/>
<path d="m209.61-261.75c1.7 1.5 4 3.5 5.7 4.8-1 0.5-3.8 1.9-4.5 2.5-3.6 3.1-6.5 8.9-12.2 7-2.7-0.8-7.6-5.9-9.3-8 0.4-2.1 0.7-3 1.4-5 2.7 5 5 6.7 9.8 9.3 3-0.2 5.4-0.7 7.8-2.5 1.9-3.2 0.8-5.2 1.3-8.1" fill="#fee87a"/>
<path d="m205.51-269.55c1.334 1.07 2.734 2 4.2 2.8 0.6 0.8 1.5 2.2 2.3 2.6 3.7-2 5.2-1.5 9.3-1l-1.7 2.4c0 1.8 0 3-0.5 4.7-1.2 1-2.2 1-3.8 1-1.7-1.2-4-3.2-5.7-4.7l-3.6-3.8c0.8 0 2.4 0.7 3.2 1-1.2-1.3-3-3.3-3.6-5" fill="#232e1f"/>
<path d="m212.01-264.15c3.7-2 5.2-1.5 9.3-1l-1.7 2.4-0.6 0.3c-0.5 2.1-0.4 2-2.3 2.6-2.2-0.5-3.5-2.4-4.7-4.3" fill="#407142"/>
<path d="m189.31-255.55c-1.5-1.8-1.8-2-2.5-4.2 0.6-5.9 9.6-7.1 14.4-7.9 2-0.3 2.6 0.4 4 1.6-5.3 2.2-9 1.2-14.5 5.6-0.7 2-1 2.9-1.4 5" fill="#ecc674"/>
<path d="m218.51-255.15c7.1 0.2 16.7 0.4 14.4 11-2.2 3-6.1 2.4-10 4-15.5 1.3-21-7.9-4.4-15" fill="#85563a"/>
<path d="m242.01-254.35c8.4 3.2 6.4 6 0.1 9.6-2.8 0.1-4.9 0.2-5.6-2.8 1-3.6 2.6-4.7 5.5-6.8" fill="#926446"/>
<path d="m232.51-280.05c7.4-5.7 22 1.6 22.7 12l-2.2 0.4c-4.8-0.2-8.3-1.2-11.5 2.8-3.2-3.6-5.8-4.2-10.2-4.5l1.2-5.9c0.1-1.8 0.2-3 0-4.8" fill="#f3c43b"/>
<path d="m232.51-280.05c7.4-5.7 22 1.6 22.7 12l-2.2 0.4c-3.2-7.8-7.6-13-16.7-10.2-1.5 1.6-1.7 2-3.8 2.6 0.1-1.8 0.2-3 0-4.8" fill="#c2943c"/>
<path d="m255.21-268.05c10.5 1 4 18.2-4.5 19l0.3-1.6c-2.2-4-3.8-5.3-8-6.7 0.9-2.8 0.6-4-0.5-6.5l-1-1c3.2-4 6.7-3 11.5-2.8l2.2-0.4z" fill="#e88c9f"/>
<path d="m255.21-268.05c10.5 1 4 18.2-4.5 19l0.3-1.6c8-5.8 9.7-17.5-2.6-15.3l-0.9 0.1c-2.6 0.5-3 0.3-5 2l-1-1c3.2-4 6.7-3 11.5-2.8l2.2-0.4z" fill="#ad4c5e"/>
<path d="m262.01-273.35c5 0.2 6 3.4 6.5 7.8-4.5-0.5-7-3.1-6.6-7.8" fill="#dbd9d3"/>
<path d="m188.11-278.55 1.6 1.2c1.3 3.4-0.5 5.1-3.2 7.1-1.7-1-1.1-0.3-2-2 0.3-3 1.6-4 3.6-6.3" fill="#cfcecd"/>
<path d="m266.81-255.95 1.8 0.2c1.8 2.7-1.6 5.4-3.6 7l-1.4-0.6c-2-3 0.9-4.7 3.2-6.6m-11.3 11.1c2 0.4 1.1 0 2.5 1.2l-0.1 1c-1.6 2-2.8 2.4-5 3.7-1.6-0.1-2-0.3-2.8-1.5l0.4-1.1c1.7-2 2.5-2.2 5-3.3m-56.3-41.1c3-0.3 3-0.6 5.5 0.6l0.2 0.9c-1.3 1.7-0.9 1.1-3.1 2l-3.4 0.5c-1.7-0.8-1.2-0.2-2-1.7 1-1.8 0.7-1.2 2.8-2.3" fill="#dbd9d3"/>
<path d="m222.01-289.25c2.8 0 5.7 0 7.1 2.6l-0.6 1.5c-2.9 0.2-5.3 0.8-7.5-1.2 0-2-0.2-1 1-3" fill="#cfcecd"/>
<path d="m176.91-257.15c3.4 0.9 4.8 5.4 3.7 8.6-4-1.2-5.7-4.8-3.7-8.6m62.1-29.4c2.5 0 4.8 0.3 6.8 1.7 1.2 1.9 0.9 0.8 0.6 3.3-2.6-0.4-5.4-0.7-7.4-2.3-0.8-1.7-0.7-0.8 0-2.7m-0.7 48.7c1.5 0.6 1 0.1 1.9 1.4l-0.5 1c-2 1.7-2.8 1.8-5.3 2.6-1.7-0.5-2-0.6-2.5-2 1.2-2.4 4-2.6 6.4-3m-52.8-7c4-0.6 6.8 1 7.6 5.1-4.4 0.6-7-0.5-7.6-5.1m-7.2-25.3c1.7 0.1 1-0.2 2.2 0.8 0.2 3-1.1 4.1-3.1 6.5l-1.6-0.3c-2-2.6 0.6-5.1 2.5-7" fill="#dbd9d3"/>
<path d="m197.41-240.05c4.6-0.2 7.3 0 8.2 5-3.8-0.7-7.4-0.6-8.2-5" fill="#cfcecd"/>
<path d="m268.91-209.25c10.4 12.2 9 24.6-3.5 34.3-15 11.7-36 14.4-54.4 12.2-22.5-2.7-56.8-19-36.2-46.3 5.3 3.5 9.1 5.6 15 8 1.5 0.4 2.7 0.5 4.2 1.3 3.2 0.8 12.4 2.6 14.9 3.8 4.5-0.4 8.6 0 13.2 0.1 4 0.7 11.2-0.4 15.2-1 1.934-0.67 3.834-1.1 5.7-1.3l6-1.7 6.6-2.2c4.6-2 9.034-4.4 13.3-7.2" fill="#fefdfc"/>
<path d="m237.31-196.95c1.934-0.6 3.834-1 5.7-1.2 0.1 2.5 0.5 5.6 0.5 8 4 1.5 4.5 1.9 7 5.4l0.2 2.5c-1.2 7.5-8.4 7-14 6.4-1.3-0.2-2.7 2.3-3.6 3-4.3 1.4-7.4 1.3-12 2.8l-0.7-0.2c-4.6-1.5-6.1-0.6-10.1-1.9-5.8-1.9-2.8-6.2-9-5.2l2.4-1.6c-2 0-2.4-0.1-4-1l2.3-0.3c3.1-0.3 3.2-0.5 4.9-2.6 1.8-4 4.9-5.5 8.8-7 1.2-0.2 2.4-0.53 3.6-1l2.8-5c4 0.7 11.2-0.4 15.2-1" fill="#4b311c"/>
<path d="m221.51-188.35c4.2 0.7 5.7 0.9 9.6 2.7 7.8 11-5 13-13.3 12-1.2-0.2-1.5-0.5-2.9-0.5l0.4-2c0-1.2 0-1.2-0.6-2.4-1.2-1.3-3-1.4-4.8-1.8l-0.5-0.3c2.1-4.2 7.4-7.3 12-7.7" fill="#85563a"/>
<path d="m225.31-186.65c1.2 0.6 1.1 0.5 1.8 1.6-0.9 1.8-1 1.5-3 2.7-2-0.7-1.5 0-2.3-1.4 0.5-1.3 2.2-2.1 3.5-2.9" fill="#b18d6f"/>
<path d="m237.31-196.95c1.934-0.6 3.834-1 5.7-1.2 0.1 2.5 0.5 5.6 0.5 8-6.8 0.7-6.8 3.9-9.4 4-1.3 0.1-1.8 0-3 0.5-3.9-1.8-5.4-2-9.6-2.7l0.4-2.2-2.6-0.2 2.8-5c4 0.6 11.2-0.5 15.2-1.2" fill="#df6241"/>
<path d="m237.31-196.95c1.934-0.6 3.834-1 5.7-1.2 0.1 2.5 0.5 5.6 0.5 8-6.8 0.7-6.8 3.9-9.4 4-0.6-0.93-1.4-1.7-2.4-2.3 3.3-0.7 6.8-1.4 7.6-5.2-0.6-2-0.6-1.8-2-3.3" fill="#c93539"/>
<path d="m222.01-190.55 0.6-0.6c3.1 1.8 5.8 0.5 9.1 2.7 1 0.7 1.8 1.2 2.4 2.3-1.3 0.1-1.8 0-3 0.5-3.9-1.8-5.4-2-9.6-2.7l0.5-2.2z" fill="#51231c"/>
<path d="m209.41-180.55 0.5 0.2c1.8 0.4 3.6 0.5 4.8 1.8 0.5 1.2 0.6 1.2 0.6 2.5-0.266 0.67-0.4 1.33-0.4 2-2.7 0-5.8-0.6-7-3.5 0.2-2 0-1.3 1.5-3" fill="#926446"/>
<path d="m209.91-180.35c1.8 0.4 3.6 0.5 4.8 1.8 0.5 1.2 0.6 1.2 0.6 2.5-2.333-0.33-4.333-1.33-6-3l0.6-1.3z" fill="#b18d6f"/>
<path d="m239.41-185.85c3.4-1.5 4.7-2.3 7.7 0.7 0.8 1.6 1 1.7 0.8 3.5-1.6 2.5-2.7 2-4.9 3.2-2 1.2-3.7 1.5-5.8 0.1-2.5-3.5-0.2-5.2 2.2-7.5" fill="#85563a"/>
<path d="m239.41-185.85c3.4-1.5 4.7-2.3 7.7 0.7l-2.7 0.9 0.2 0.8c-1-1.1-2-1.3-3.4-1.8l-1.8-0.6z" fill="#926446"/>
<path d="m241.21-185.25c1.4 0.5 2.4 0.7 3.4 1.8l-1.5 3.5c-1.4 0-1.4 0.2-2.5-0.6-0.5-2.1 0-2.2 0.6-4.7" fill="#b18d6f"/>
<path d="m194.01-199.75c3.2 0.8 12.4 2.6 14.9 3.8 4.5-0.4 8.6 0 13.2 0.1l-2.8 5c-1.2 0.47-2.4 0.8-3.6 1-4 1.5-7 3-8.8 7-0.6-0.8-0.6-0.7-1.4-1.3-1.426 0.21-2.874 0.21-4.3 0-5-2-6.7-3.5-9.5-8 0-3.4 2.4-2.6 3.1-6l-0.8-1.1v-0.5z" fill="#f3c43b"/>
<path d="m208.91-195.95c4.5-0.4 8.6 0 13.2 0.1l-2.8 5c-1.2 0.47-2.4 0.8-3.6 1-2-1.4-4.2-3.6-6.1-5.2l-0.7-0.9z" fill="#232e1f"/>
<path d="m209.61-195.05c1.9 1.6 4.2 3.8 6.1 5.2-4 1.5-7 3-8.8 7-0.6-0.8-0.6-0.7-1.4-1.3-1.426 0.21-2.874 0.21-4.3 0 3.6-0.5 4.4-1.3 7.6-3.1 0.2-2.7-0.4-5.7 0.8-7.8" fill="#ecc674"/>
<path d="m249.01-199.85c3.2 0.7 6.4 1 8.3 3.4 1.1 4.4-2.7 10-6.9 11.7-2.4-3.5-3-3.9-6.9-5.5 0-2.3-0.4-5.4-0.5-8 2-0.47 4-1 6-1.6" fill="#e88c9f"/>
<path d="m194.01-199.25 0.8 1.1c-0.7 3.4-3.2 2.6-3.1 6 2.8 4.5 4.5 6 9.5 8 1.7 0.2 2.5 0.2 4.3 0 0.8 0.6 0.8 0.5 1.4 1.3-1.7 2-1.8 2.3-4.9 2.6l-2.3 0.2c-3.7-2.4-5.9-3.4-8.7-7-7.2-7.3-5-8.5 3-12.2" fill="#fee87a"/>
<path d="m189.71-200.95c1.6 0.3 2.8 0.4 4.3 1.2v0.5c-8 3.7-10.2 5-3 12.1 2.8 3.7 5 4.7 8.7 7.1 1.6 1 2 1 4 1l-2.4 1.7c-6.3 0.8-18.7-11.3-18-17.9 0.3-2 4.7-4.6 6.4-5.7" fill="#232e1f"/>
<path d="m249.01-199.85 6.6-2.2c6.6 3.3 6 8 2.7 14.5-1.4 2.8-4.2 5.3-7.6 5.3l-0.3-2.5c4.2-1.7 8-7.3 7-11.7-2-2.5-5.2-2.7-8.5-3.4" fill="#ad4c5e"/>
<path d="m237.41-171.45c1.3-0.1 1.4 0 2.6 0.3l0.5 0.9c-0.5 2.6-2.6 3.4-4.9 4.3-2.1-0.4-2.4-0.4-3.6-1.8l0.3-1.2c1.6-1.7 2.8-1.8 5.1-2.5m-60.6-19.1c3.8 1.6 5.4 5.2 3.8 9-4-1.5-5.6-5.1-3.8-9" fill="#cfcecd"/>
<path d="m255.41-177.85c1.6 0 1.5 0 2.7 1v1.1c-1.6 2-2.8 2.4-5 3.6-2-0.4-1.5 0-3-1.3l0.2-1.1c1.7-2 2.7-2.3 5.1-3.3m-69.5-0.5c3.7 0.5 7.5 1.4 6.3 6-4-0.2-7.5-1.3-6.3-6" fill="#dbd9d3"/>
<path d="m197.41-172.95c4-0.3 8.4-0.6 8.1 4.5-3.6 0.4-7-0.7-8.1-4.5" fill="#cfcecd"/>
<path d="m267.31-189.45 1.4 0.4c2 2.8-1.5 5.2-3.6 7-1.6-1-1.8-1.2-2-2.8 1-2 2.4-3 4.2-4.6m-88.3-14.7c1 0.5 0.7 0.3 1.4 1.3 0 3-1.2 4.7-3.1 7-2-1.2-1.4-0.4-2.4-2.3 0.2-3 2-4.1 4.2-6m84.3-1.2c3.5 0.4 5.5 2.7 4.9 6.3-3.6 0-5.2-3.1-4.9-6.3m4.7 7.5c2.4 0 2.3 0 3.8 1.2 0.6 2.2 0.5 1.4-0.1 3.8-3-0.7-3.5-2.3-3.7-5" fill="#dbd9d3"/>
<path d="m260.31-137.55c5.6-3.3 8.4-4.7 13.3-9.2 2.1 5.5 3.9 12.8 0.6 18.3-15.4 26.4-61.5 27.7-86.3 15.8-13.9-6.6-23.6-17.6-17-33.7 3.3 3 10.5 7 12.5 9l2.6 0.8c9.9 3.6 13.3 5 23.5 6.5 6.7 0.9 12.9 0 19 0.6l3.1 0.3c0.7-0.5 1.1-0.4 2.2-0.5 2.667-0.6 5.334-1.1 8-1.5l5-1.3c2.3-1.2 8.8-3.3 11.5-4.3l2-0.8z" fill="#fefdfc"/>
<path d="m209.51-130.05c6.7 0.9 12.9 0 19 0.6l3.1 0.3c0.7-0.5 1.1-0.4 2.2-0.5 1.1 1.5 2.2 2.7 2.6 4.5-0.1 2.2-0.2 2.3 0.8 4.2l-1.2 1c-0.6 1.2-1.6 3.2-2.8 3.8-6 2.6-15 3-21.3 1.2-4.4-1.3-5.3-2.4-7.2-6.2l1-1.2 0.1-1c0-2.5 2.1-4.6 3.7-6.7" fill="#85563a"/>
<path d="m231.61-129.15c0.7-0.5 1.1-0.4 2.2-0.5 1.1 1.5 2.2 2.7 2.6 4.5-0.1 2.2-0.2 2.3 0.8 4.2l-1.2 1c-0.6 1.2-1.6 3.2-2.8 3.8-6 2.6-15 3-21.3 1.2-4.4-1.3-5.3-2.4-7.2-6.2l1-1.2 2 2c4.2 3.8 7 3 12.7 2.7 2.6 0.1 3.3 0 6-0.4 8.4 0.1 8.4-4.5 5.2-11.1" fill="#4b311c"/>
<path d="m209.51-130.05c6.7 0.9 12.9 0 19 0.6-5.6 0.2-10.3 0.3-15.9 0.3-5.7 4.9-2.1 4.8-5 8.8l-1.8-2v-1c0-2.5 2.1-4.6 3.7-6.7" fill="#4b311c"/>
<path d="m220.41-117.55-0.2-1c1.067-2.4 2.867-3.17 5.4-2.3 1 1.7 0.7 0.8 0.7 2.8-1.94 0.4-3.924 0.53-5.9 0.4m-10-7.1c3 0.4 5.4 2.7 4.7 5.9-1.9-0.4-4.3-0.7-5.4-2.1-0.3-2.2-0.2-1.6 0.7-3.8" fill="#b18d6f"/>
<path d="m241.81-131.15 5-1.3c2 1.5 3.3 2.3 4.2 4.8l0.2 1.8c-1.8 5.6-4.7 6.1-10 8-1.4-0.5-3.8-1.3-5.2-2.1l1.2-1c-1-1.9-1-2-0.8-4.2-0.4-1.8-1.5-3-2.6-4.5 2.667-0.6 5.334-1.1 8-1.5" fill="#4b311c"/>
<path d="m233.81-129.65c2.667-0.6 5.334-1.1 8-1.5-2 3.3-2.7 2.7-4.4 4.7l-1 1.3c-0.4-1.8-1.5-3-2.6-4.5" fill="#51231c"/>
<path d="m236.41-125.15 1-1.3c1.2 1.8 4 4.2 4.3 5.3-2 1.2-2 0.3-4.5 0.2-1-1.9-1-2-0.8-4.2" fill="#926446"/>
<path d="m186.01-136.55c9.9 3.6 13.3 5 23.5 6.5-1.6 2.1-3.7 4.2-3.7 6.7-9.3 0.3-15.2-5.5-19.8-13.2" fill="#ecc674"/>
<path d="m183.41-137.25 2.6 0.7c4.6 7.7 10.5 13.5 19.8 13.2v1l-1.1 1.2c-4.3 0.8-6 0.7-9.8-1.7-4.8-3-10.1-9-11.5-14.4" fill="url(#a)"/>
<path d="m258.31-136.75 0.6 0.7c-1.839 3.45-4.566 6.35-7.9 8.4-1-2.5-2.1-3.3-4.3-4.8 2.4-1.2 8.9-3.3 11.6-4.3" fill="#e88c9f"/>
<path d="m258.31-136.75 2-0.8c-1.4 5.3-2.8 10.7-9 11.7l-0.3-1.8c2.7-1 6.7-5.7 7.9-8.4l-0.6-0.7z" fill="#ad4c5e"/>
<path d="m237.51-114.15c2 0.2 1.4-0.2 2.5 0.9l-0.3 1c-1.9 2-2.6 2-5.1 3-1.8-0.5-2.4-0.9-3-2.5 1.1-2.5 3.6-2.3 6-2.4" fill="#cfcecd"/>
<path d="m255.61-121.35c1.9 0.5 1.1 0 2.3 1.5l-0.3 1.2c-1.7 1.9-2.6 2.2-5 3.3-2-0.4-1.2 0-2.6-1.2l0.3-1.3c1.8-2.1 2.8-2.4 5.3-3.5m-78.6-12.2c4 1.1 5 5.2 3.6 8.7-4-1.3-5.3-5-3.6-8.8" fill="#dbd9d3"/>
<path d="m266.91-132.45c1.8 0.5 1 0 2.4 1.4v1.4c-1.2 2.2-1.7 2.5-3.7 4.3-2-0.3-1.2 0.1-2.6-1.1 0-2.8 1.8-4 3.9-6m-80.9 11c3.2 0.2 7.4 1.7 6.8 5.6-3.8 0-7.6-1-6.8-5.6m11.3 5.5c4.1-0.7 7.7-0.6 8.6 4.2-4 0-6.8-0.3-8.6-4.2" fill="#cfcecd"/>
<path d="m268.01-141.45c2 0.1 2.1 0 3.8 1.1 1 1.6 1 2 1.2 3.9-3.6 0.1-4.2-2-5-5" fill="#dbd9d3"/>
<path d="m198.01-161.15c30.3 5 53.7 4.5 77.2-17.3 0.4 9.6 1.7 20.3-5.8 27.9-11.4 11.6-30.6 15.7-46.3 15.8-5.7 0-24.2-1-28.6-4.2-1.2-6-4.4-5.4 0.4-11.4l-3.1-6.2c2.7-1.7 3.8-2.3 6.2-4.6" fill="#232e1f"/>
<path d="m199.71-147.85c1.9 0.7 2.2 1.2 2.8 3 0 2.4-0.3 2.5-1.5 4.7-5-1.3-3.1-4.7-1.3-7.7m-0.1-7.6c1.771-0.5 3.419 1.1 2.967 2.89-0.21 0.82-0.845 1.48-1.667 1.71-1.77 0.5-3.419-1.11-2.967-2.89 0.21-0.83 0.845-1.48 1.667-1.71" fill="#4f5f49"/>
<path d="m198.01-227.55c5.9 0.2 11.7 1.9 17.4 2.3 19 1.6 39.1-2.5 54-15 1.934-1.67 3.867-3.27 5.8-4.8 0.8 10.1 2 18.7-5.4 27-9.7 11.1-27.9 15.6-42 16.6-7.2 0.5-26.5-0.4-32.4-4.3-2.5-5.5-4.2-6.1-0.1-11.2l-3.5-6.4 6.2-4.2z" fill="#232e1f"/>
<path d="m199.61-214.25 1.7 0.6c2.5 2.7 1.2 4.7-0.8 7.4-4.3-2.5-3.6-4.7-0.9-8m-0.5-7.7c1.578-0.85 3.481 0.33 3.426 2.12-0.026 0.83-0.493 1.59-1.226 1.98-1.644 0.66-3.382-0.71-3.128-2.47 0.089-0.61 0.424-1.17 0.928-1.53" fill="#4f5f49"/>
<path d="m197.61-104.25c5 0.7 9.8 1.9 15 2.2 25 1.7 43.6-2.5 62.7-19.1 0.4 9.2 1.5 19.5-5.5 26.899-11.2 11.7-29 15.2-44.6 15.9-5 0.2-27.2-0.8-30.4-4.3-0.4-2-2.2-4.8-3.3-6.7l4-4.1c-1.3-2-3-4-2.9-6.199 1.1-2 3-2.7 4.7-4.3l0.3-0.3z" fill="#232e1f"/>
<path d="m199.01-90.251c2.1 0.3 2.5 0.6 3.5 2.3 0 2.2-0.5 2.7-1.6 4.7h-0.7c-3.3-1.6-2.3-4-1.2-7m0.1-8.3c1.578-0.809 3.44 0.395 3.351 2.166-0.042 0.821-0.518 1.559-1.251 1.934-1.694 0.513-3.309-1.001-2.906-2.725 0.118-0.503 0.402-0.953 0.806-1.275m-21.3-116.9c-7.8-2.3-12.6-27.5-6.1-28.4 2.4 1 4.4 4.2 6.2 6.4 7.2 3.4 12.5 6.6 20.2 9.9l-6.3 4 3.5 6.5c-4 5-2.4 5.7 0.1 11.2-6.603-1.61-12.67-4.92-17.6-9.6" fill="#4f5f49"/>
<path d="m177.81-215.35c-7.8-2.3-12.6-27.5-6.1-28.4 2.4 1 4.4 4.2 6.2 6.4 0.8 3.3 1.6 4 3.4 6.8-2.7 2.9-3.2 2.5-1.8 6.4 0.9 2.5 1.4 3.7 0 6l-1.7 2.8z" fill="#232e1f"/>
<path d="m178.11-148.35c-7.8-2-11-21.1-8.3-27.8 1.3-1.2 0.5-1 2.3-1 2.2 1.2 4.7 4.7 6.2 6.8 5.8 3.2 13.4 7.2 19.7 9.2-2.4 2.3-3.5 2.9-6.2 4.6l3.1 6.2c-4.8 6-1.6 5.4-0.4 11.4-5.5-1.4-12.6-5-16.4-9.4" fill="#4f5f49"/>
<path d="m178.11-148.35c-7.8-2-11-21.1-8.3-27.8 1.3-1.2 0.5-1 2.3-1 2.2 1.2 4.7 4.7 6.2 6.8 0 2 2 4.4 3.2 6.2l-3.8 4c6 7.3 1.6 5.7 0.4 11.8" fill="#232e1f"/>
<path d="m177.91-91.351c-7.6-5-13.3-27.699-6.1-28.399 2.3 1 5 4 6.3 6 7 3.9 12.3 6.1 19.5 9.5l-0.3 0.3c-1.8 1.6-3.6 2.2-4.7 4.3-0.2 2.199 1.6 4.099 3 6.199l-4 4.1c1 2 2.8 4.6 3.2 6.7-6.25-1.5-12.047-4.484-16.9-8.7" fill="#4f5f49"/>
<path d="m177.91-91.351c-7.6-5-13.3-27.699-6.1-28.399 2.3 1 5 4 6.3 6 0.1 2.6 1.7 4.4 3.3 6.5l-3.4 4 3.3 5.599c-1.2 2-2.6 4-3.4 6.3" fill="#232e1f"/>



















































<g transform="matrix(.98693 .16117 -.16117 .98693 0 -3e-6)" style="transform-origin:-92.7098px -185.863px">






</g>








































































<g transform="matrix(0 1 -1 0 234.31 306.99)" style="transform-origin:-17.3734px 332.579px">













</g>

    </svg>
  </g>
</svg>
