<svg xmlns="http://www.w3.org/2000/svg" width="44" height="43" viewBox="0 0 44 43"><svg x="6.81" y="3.94" width="33.88" height="33.11" viewBox="1152 0 384 341.333333" preserveAspectRatio="xMidYMid meet" style="overflow:hidden"><g transform="translate(0 0)" data-sgt-offset="1"><defs><linearGradient id="a" x1="1399.2" x2="1243.7" y1="228.9" y2="150.1" gradientUnits="userSpaceOnUse"><stop offset="0" stop-color="#678DFD"/><stop offset="1" stop-color="#8CDAFB"/></linearGradient></defs><path fill="url(#a)" d="M1296 106.3c2.2-7.9 5.2-14 12.6-18.2a25 25 0 0 1 18.8-2.3 25.6 25.6 0 0 1 15.5 12.5c1 1.7 1.7 3.5 2.5 5.3 6-4 11.3-5.7 18.7-4 6.2 1.2 11.6 5 15 10.2 5.6 9 2 16.9 3.6 20.2l4.7-.9c11.8-2.3 25.2 6.7 26.6 19.3 1.9 17.6-13 36.2-16 52.5-4.8 26.5-.3 44.6-18.4 68.2a66.7 66.7 0 0 1-43.9 25.3c-20 2.6-39-1.8-55-14.4a84.6 84.6 0 0 1-14.8-15.2c-7.5-9.8-13.1-22.4-20.3-33-5.1-7.4-14.9-16.6-18.7-23.6-15.2-28.4 16.3-47.9 41.2-28.8-2.2-9-5.8-22.3-7-31.2-1.6-6-3.3-12-3.8-18.1-1.4-14.6 6.7-27.3 22-28.2 6-1.4 11.6 1.4 16.7 4.4Z" data-index="1"/><path fill="#1D1E29" d="M1279.8 113.6c5 .9 6.5 1.2 9.8 5.5 7.4 9.5 10.4 52.4 18.3 58 .7-.1 1 0 1.4-.7 5.9-10.6-5-56.7-.3-70.3 1.4-4.2 5.6-7.3 9.8-8.6a9 9 0 0 1 6.9.5c3.7 2 5.8 6.5 6.8 10.4 3.3 13-3 64 2 69.2 13.7-2.7 4.7-77.7 30.6-64.5 13.8 7-11.6 67.2-2.6 74.2 10.2-4 14.9-52.2 33-45 10.2 3.8 4.2 18.3 1.3 25-4.3 10-8.3 20.1-11.1 30.6-4.6 20.8-1.7 37.7-12.5 57.3a53.1 53.1 0 0 1-31.9 25 59.3 59.3 0 0 1-45.6-5.8 61.7 61.7 0 0 1-17.3-14.6c-8-9.8-13.1-22-20.1-32.5-4.5-6.7-10.2-13.1-15.2-19.3-2.5-3.2-6.2-7.5-7.2-11.4-2.9-11 14.5-15.7 21.5-10 4.8 3.8 8.9 8.7 13.1 13 3 3 6.6 6.8 11 6.4 1.8-.1 2.9-1.2 3.8-2.4 1-5.4-1.4-16.4-3.2-21.8-4.5-14-6.3-32-11-45.5-1-11.9-6-16 8.7-22.7Z" data-index="2" style="opacity:1"/><path fill="#99F5FB" d="M1261 148.2c-1.5-6-3.2-12-3.8-18.1-1.3-14.6 6.8-27.3 22-28.2-5.9 5.7-12.6-2-8.8 15.3l.8.4.7-.7c2.3-2.2 3-3 6-3.8l1.9.5c-14.7 6.8-9.7 10.8-8.7 22.7l-1.3-.5c.1-2.6-1-5-3-6.5l-.3.4 1 .7-1.2-.3a14.8 14.8 0 0 1-6 8c-.3 4.2 2.8 7.2.7 10.1Z" data-index="3"/></g></svg></svg>