<svg xmlns="http://www.w3.org/2000/svg" width="44" height="43" viewBox="0 0 44 43"><svg x="5.49" y="4.16" width="36.52" height="35.69" viewBox="1152 341.333333 384 341.333333" preserveAspectRatio="xMidYMid meet" style="overflow:hidden"><g transform="translate(0 0)" data-sgt-offset="1"><path fill="#7A99FB" d="M1302.2 486c0-11.2.2-23.3-.1-34.6-.4-17.5-2-38.8 21.6-39.6 9-.3 19 7 19.7 16 1.7 19 .8 39.2.7 58.3h33c15.8-.4 38.3-1.6 39.1 20.2.4 9.8-6.5 18.7-16.8 20.6-17.8 1.6-37 .7-55 .7-.2 10.3 0 20.6 0 30.8-.1 10.9 2.2 27.3-6.7 35.4-12 11-33 4.6-35-12.6-1.4-17.5-.3-36-.5-53.6-10.6 0-24.7.3-35-.3-13.2.5-37.9 1-37.1-20 1-25.7 29.8-21.4 48.3-21.2 7.9-.1 15.8-.2 23.8 0Z" data-index="30" style="opacity:1"/><path fill="#1D1E29" d="M1270.8 497.4c6.2 0 38.7 1.5 41.5-1.3 6.2-6.4-2.6-55.2 3-67.7a8.4 8.4 0 0 1 7.2-5.4c2.4-.2 4.8.2 6.6 2 2 1.8 2.9 4.6 3.3 7.2 1.9 11 .3 37.6 0 50 0 4.5-1 10.2 2 13.8 11.5 7.1 66.2-7.2 70 8.7.5 2.3.3 4.8-1 6.8-1.7 2.7-5.1 4-8.2 4.6-8.8 1.6-58-2.4-61 2.1-7.3 10.4 7 65.9-8.7 69.6a9 9 0 0 1-7-1c-2.9-1.9-4-5.5-4.4-8.8-1.8-12.2 3.2-53.2-2.1-60.6-3-2-55-1.6-61.3-.7-16.9-6.2-7.7-21.9 7.1-19.4 2.5.4 10 0 13 .1Z" data-index="31" style="opacity:1"/><path fill="#7AB9FB" d="M1267.1 527.3c-13.1.5-37.8 1-37-20 1-25.7 29.8-21.4 48.3-21.2l-.9.3c-8.8 3-25.1-.6-29.9 2.9-.4 2.3-1.1 4.5-.6 6.7 4.5 2 23.5-1.6 28 .1-1.7 1.4-2.2.3-4.2 1.3-3 0-10.5.3-13-.1-14.8-2.5-24 13.2-7 19.4 4.6.8 14.9-.2 17.7.7-7 .7-18.8 1.3-25-2.7-2.8-1.7-3-6.6-3.1-9.6-2.1 3.8-6.7 9.1-6 12 12 15 20 6 32.7 10.2Z" data-index="32"/></g></svg></svg>