<svg xmlns="http://www.w3.org/2000/svg" width="44" height="43" viewBox="0 0 44 43">
  <defs><clipPath id="clip_sgtveggie_01"><rect x="0" y="0" width="44" height="43"/></clipPath></defs>
  <g clip-path="url(#clip_sgtveggie_01)">
    <svg x="12.52" y="18.45" width="31.68" height="30.96" viewBox="-109.1 -203.3 315.9 367.2" preserveAspectRatio="xMidYMid meet" style="overflow:hidden">
<defs><linearGradient id="e" x1="53.8" x2="211.5" y1="101.5" y2="265.9" gradientTransform="translate(-125 -248)" gradientUnits="userSpaceOnUse"><stop offset="0" stop-color="#3f1212"/><stop offset="1" stop-color="#291b17"/></linearGradient></defs><path fill="url(#e)" d="M-58-153c37 1 104 42 127 72 5 8 3 23 1 31 13 2 49 6 25 27q-5 5-14 6c7 8 16 25 7 35q-5 5-14 4c-10-2-14-6-22-13-6 20-28 35-30 3L21-2 10 1Q-2 2-12-4c-27-20-58-91-62-123q-3-11 3-20 6-6 13-6" style="stroke-width:1;transform-origin:14.469px -61.372px" transform="rotate(24)"/><path fill="#f3513e" d="m-70-140 5-6c10-5 25 1 34 4 25 9 85 42 96 66q3 6 2 14v5C61-34 24 2-2-5c-12-3-27-25-33-36-12-19-40-78-35-99" style="stroke-width:1;transform-origin:14.469px -61.372px" transform="rotate(24)"/><path fill="#cd2d2c" d="m-70-140 5 15c5 13 13 35 21 46 4-3 15-14 20-15h1c0 6-14 18-18 22 7 12 19 33 29 44l8-6c5-3 13-12 17-13l1 1C13-38 1-28-5-23 17-5 50-35 61-53l6-9v5C61-34 24 2-2-5c-12-3-27-25-33-36-12-19-40-78-35-99" style="stroke-width:1;transform-origin:14.469px -61.372px" transform="rotate(24)"/><path fill="#fbdbd5" d="M-30-132c-5-2-23-8-25-11 22-5 112 47 114 69l-1 1c-3-1-17-17-24-21l-5-4q-24-19-53-31z" style="stroke-width:1;transform-origin:14.469px -61.372px" transform="rotate(24)"/><path fill="#cd2d2c" d="m29-98 5 4c-3 4-19 25-24 21 1-4 16-20 19-25m-59-34 6 3-1 1c-3 3-11 10-15 10v-1z" style="stroke-width:1;transform-origin:14.469px -61.372px" transform="rotate(24)"/><path fill="#73af62" d="M67-45c8 1 28 2 31 10 0 10-20 14-27 15l1 1Q86-9 87 6q2 11-10 11-12-1-21-11l-6-8c-2 9-5 25-17 27h-2c-5-6-5-23-6-30q27-14 42-40" style="stroke-width:1;transform-origin:14.469px -61.372px" transform="rotate(24)"/>
    </svg>
  </g>
</svg>
