<svg xmlns="http://www.w3.org/2000/svg" width="44" height="43" viewBox="0 0 44 43"><svg x="7.1" y="11.77" width="32.12" height="31.39" viewBox="0 0 384 341.333333" preserveAspectRatio="xMidYMid meet" style="overflow:hidden"><g transform="translate(0 0)" data-sgt-offset="1"><path fill="#7DABFB" d="M164.4 156.4v-.6c.3-15.5-1.3-31.8.6-47 1.3-6 5.3-12.6 11-14.8 15-5.9 26.3 5.6 36.3 15.1 4.6 3.3 13.1 11 17.7 15l31.5 27.8c14.6 12.8 29.8 25.3 43.7 38.8 13.5 13 7.3 33.4-11.4 35.6-8.3 1-17.2.2-25.6.3 5.5 12.1 17.5 33.4 17 44.4-1 18.5-20.9 28.3-36.9 22.1-14.4-5.6-23.5-32.4-29-44.2-9.3 9.3-20.5 24.7-34.6 24.5-16.1-.2-21.5-13.6-20.4-27.8.3-29.7-.6-59.6 0-89.2Z" data-index="22" style="opacity:1"/><path fill="#1D1E29" d="M177.1 159.6c1.1-11.2-4.6-52.6 6.7-54.8 6 .7 12.7 8 17.7 12.2 7 6.9 17.5 15.6 25.1 22.2L272 179c4.4 3.9 22 18.3 24.6 22 15.3 22.2-40.3 8.1-46.4 14.9-.3 6.9 21.5 46.2 22 52 .3 4.1-1.3 8.2-4.5 10.8-23.9 20.6-33.6-43.2-44.6-49-2.4-.2-3.8.6-5.6 2-6.9 5.8-25 29.2-32.9 28.8-2 0-4-.9-5.4-2.4-4.6-5-.6-83.2-2.1-98.4Z" data-index="23" style="opacity:1"/><path fill="#68F7E2" d="M164.4 156.4v-.6c.3-15.5-1.3-31.8.6-47 1.3-6 5.3-12.6 11-14.8 15-5.9 26.3 5.6 36.3 15.1-4.2-.7-14.5-10.6-18.4-13.9-2 2.6-4.8 5.7-4.8 8.7 2.2 6.4 11.8 5.9 12.4 13.1-5-4.3-11.7-11.5-17.7-12.2-11.3 2.2-5.6 43.6-6.7 54.8-2.3-2.6-.2-36.7-1.2-43.3a27 27 0 0 1-9 2.3l-1 .2c.2 15 .3 30.1 0 45.2h-.4l-1.1-7.6Z" data-index="24" style="opacity:1"/></g></svg></svg>