<svg xmlns="http://www.w3.org/2000/svg" width="44" height="43" viewBox="0 0 44 43">
  <defs><clipPath id="clip_sgtfastfood_07"><rect x="0" y="0" width="44" height="43"/></clipPath></defs>
  <g clip-path="url(#clip_sgtfastfood_07)">
    <svg x="3.48" y="6.41" width="44" height="43" viewBox="302.71 92.8867 345.95 391.4667" preserveAspectRatio="xMidYMid meet" style="overflow:hidden">

<defs>












<linearGradient id="ak" x1="892.8" x2="884.2" y1="463.6" y2="462.7" gradientTransform="matrix(.89647 0 0 1 -280.07 -357.64)" gradientUnits="userSpaceOnUse">
<stop stop-color="#ab482f" offset="0"/>
<stop stop-color="#c55f36" offset="1"/>
</linearGradient>













<linearGradient id="ax" x1="703.1" x2="706.8" y1="513.5" y2="548.5" gradientTransform="translate(-116.89 -249.21)" gradientUnits="userSpaceOnUse">
<stop stop-color="#b87054" offset="0"/>
<stop stop-color="#d9a17d" offset="1"/>
</linearGradient>
</defs>
<g transform="matrix(.95101 .30916 -.30916 .95101 -2e-6 0)" style="transform-origin:-231.847px -156.556px">





</g>














































































































































































<g transform="translate(353.54 108.44)" stroke-width="3px">
<path d="m508.51 79.925c0.448-5.8 1.565-9.568 8.647-7.468 2.062 3.8 1.883 4.6 1.524 9-3.408 9.694 0.052 37.584 0.448 37.7 0 5 1.435 16.5-3.854 17.9-1.645-0.182-2.297 0.988-4.128-0.948-2.38-0.854-3.307-6.027-2.969-7.211-1.383-6.135 2.413-23.358 2.058-27.758-0.119-1.734-1.929-15.442-1.81-17.308l0.084-3.907z" fill="url(#ak)" stroke="#000"/>
<path d="m508.61 82.857 2.3 2.3c0.1 1.5 0 2.2 1 3.4 1-0.6 0.6-0.1 1.1-1.3 2.8 12.5 3.5 24.6 2.7 37.4-0.4 6 3.814 11.293-3.186 11.193l-3.514-4.193c-0.567-2.99 0.511-14.001 1.726-21.848 1.31-8.462-7e-3 -13.881-0.872-17.781-0.133-1.734-1.487-7.305-1.354-9.171" fill="#c9763c"/>


</g>
































































































































































































































































































































<g transform="matrix(.94871 .31614 -.31614 .94871 -3.2528 7.368)" style="transform-origin:476.68px 281.702px">
<path d="m432.31 222.2c5.3 0.5 20.5 5.6 26 7.3l52.3 16.8c4 1.3 12.3 2.8 15.2 4.2 28.6 14-12.3 58.8-24.8 69.7-9.327 8.75-20.262 15.609-32.2 20.2-6.8 2.4-19-0.6-21.7-7.8-2.8-7-4.8-15.1-7.3-22.4l-12.8-38.2c-3.2-9.4-6.6-18.9-9-28.5-2.3-9 5.5-19.4 14.3-21.3" fill="#050201"/>
<path d="m429.71 228.4c1.2-0.6 2.5-1.2 3.8-0.9 9.7 2.7 20 6 29.5 9 16.9 5.6 34.7 10.6 51.4 16.7l0.8 0.3c8 0.8 17 2.9 15.3 13.6-1.8 10.7-9.9 23.2-16.4 31.8-9.4 12.7-31.2 31.3-46.4 36.5-3.6 1.3-9.8 0.7-13-1.7-4.2-4-5.7-11.4-7.4-16.9-7.7-25.5-18.2-51.2-25-77 1.6-5.6 3.5-7.4 7.4-11.4" fill="#f5da66"/>
<path d="m515.21 253.5c8 0.8 17 2.9 15.3 13.6-1.8 10.7-9.9 23.2-16.4 31.8l-2.5 0.4c-12.1 9.3-44 42.7-53 14.1 13.466-3.907 25.65-11.328 35.3-21.5 9.3-9 21.3-24.6 21.3-38.4" fill="#eeb33f"/>
<path d="m429.71 228.4c3.3 7.7 7 20.7 9.8 29l19.1 56c9 28.6 40.9-4.8 53-14l2.5-0.5c-9.4 12.7-31.2 31.3-46.4 36.5-3.6 1.3-9.8 0.7-13-1.7-4.2-4-5.7-11.4-7.4-16.9-7.7-25.5-18.2-51.2-25-77 1.6-5.6 3.5-7.4 7.4-11.4" fill="#e49d3a"/>
<path d="m467.81 274.8c7.467-2.156 14.468 4.58 12.601 12.125-0.867 3.501-3.535 6.274-7.001 7.275-7.428 2.155-14.404-4.539-12.557-12.05 0.858-3.486 3.51-6.25 6.957-7.25m-9.2-29.3c7.549-1.045 13.399 6.473 10.529 13.534-1.565 3.853-5.372 6.316-9.529 6.166-7.616-0.276-12.078-8.692-8.031-15.15 1.555-2.483 4.13-4.149 7.031-4.55m33 10.8c5.812-1.194 10.736 4.352 8.864 9.982-0.869 2.613-3.066 4.564-5.764 5.118-5.907 0.483-10.123-5.609-7.589-10.968 0.909-1.919 2.569-3.378 4.589-4.032" fill="#de343e"/>
</g>
<path d="m583.51 232.8c38.404-4.945 67.76 33.538 52.84 69.269-7.403 17.73-24.26 29.694-43.44 30.831-38.567 3.618-66.588-35.871-50.438-71.08 7.496-16.341 23.139-27.441 41.038-29.12" fill="#050201"/>
<path d="m545.11 269c9.497-33.474 51.669-44.115 75.91-19.154 11.966 12.322 15.914 30.36 10.19 46.554-10.546 33.178-53.054 42.498-76.514 16.775-10.888-11.937-14.58-28.777-9.686-44.175" fill="#4d0f0a"/>
<path d="m545.11 269 0.5 0.6 0.8-1.3c1.5 2.7-1 7 0.5 9.4-0.733 2-1.333 3.966-1.8 5.9 1 4.6 3 7.1 4.8 11.3 1.2 2.9-0.2 10 2.7 11.8 6.2 4.1 12.9 10.2 18.7 14.5 6 4.4 13.4-0.3 22.3 2.2 14 1.5 12.1-3.3 21.8-11.8 8.4-7.5 14.1-7.5 12.8-20.8 2.238-4.414 3.821-9.13 4.7-14 4.52 34.5-30.003 60.955-62.141 47.619-21.666-8.99-32.854-33.061-25.759-55.419" fill="#c9763c"/>
<path d="m545.11 269c8.206-25.666 36.901-38.497 61.5-27.5-5.8 2.2-15-2.7-19.2-1v1.1c-3.854-1.793-8.288-1.865-12.2-0.2-4.2 1.7-6.9 6.4-10.4 9-3.4 2.6-12 4.4-13.2 9.1-2 7.5-0.7 11-4.7 18.2-1.5-2.4 1-6.7-0.5-9.4l-0.8 1.3-0.5-0.6zm71.2-21.7c9.162 7.298 15.117 17.881 16.6 29.5-0.879 4.87-2.462 9.586-4.7 14-1.2-6.1 1-9.5 1.7-15.4 1-8.4-4.7-9.6-8-14.7-2.7-4-2.8-7.8-6.5-12.3l0.9-1.1z" fill="#d29a62"/>
<path d="m587.31 241.6v-1.2c4.2-1.6 13.5 3.3 19.3 1 3.467 1.6 6.7 3.6 9.7 6l-1 1c-8.7-6.6-15.5-1.6-28-6.8" fill="#f4b793"/>
<path d="m579.21 241.8c6.5-0.5 10.3 2.5 17 3.5 4.5 0.6 10.3 0 13.5 1.5 8.2 2.6 8 10.2 12.3 16 12.2 10.1 3.3 16 4.8 28.8 1.3 12.4-4.8 12.2-12.6 19-3.5 3-5.2 7.5-9.7 10.4-6.7 3.6-10.6 0-17-0.2-7.8-0.3-14.3 4.3-19.9-4-4.9-5.1-12.3-7.8-15.4-12.4-0.6-2.7-0.3-8.2-1-10-1.4-4.1-5-7-5-12 2-3.8 3-5.7 4.3-10 0.9-2.1 1.6-12.7 3.2-13.8 7.5-5 14.8-9.2 21.4-15.7 0.9-0.8 3-1 4.1-1" fill="#f187ab"/>
<path d="m622.11 262.8c12.1 10.1 3.2 16 4.7 28.8 1.3 12.4-4.8 12.2-12.6 19-3.5 3-5.2 7.5-9.7 10.4-3.5 0.2-8 0.8-11.3-0.3l1-0.8c2.1-0.5 4.2 0 6.4 0.3l-1.7-1c-3-0.4-5.7-0.7-8.6-1.8l0.8-1c-1.8-2-3.6-3.5-3.6-6.1l1-0.6 6.7-1.9c1.1 0 1.7 0 2.8 0.3 2.3 0.8 1.7 0.5 4.4 0.1l0.8-0.4c1.8 1 5 1.9 7.2 2.3 1-0.3 4-4.2 5.5-5.4l-1.2-1.2c3.467 0 5.4-1.667 5.8-5 3.6-1.6 2.8-7.9 3.7-11.3 1.334-4.2 2.434-8.467 3.3-12.8 0.7-4-3.1-8.2-5.5-11.5" fill="#e6849d"/>
<path d="m626.81 291.6c1.3 12.4-4.8 12.2-12.6 19-3.5 3-5.2 7.5-9.7 10.4-3.5 0.2-8 0.8-11.3-0.3l1-0.8c2.1-0.5 4.2 0 6.4 0.3l-1.7-1c1.7-2-0.3-5.2 4-7-0.2 1.3-1.4 2.6-2.2 4l0.3 0.5c0.9-1 0.9-1.1 2-1.9l0.3 1.9c5.2-5.2 12.2-8.7 17.4-13.8 2.3-2.3 4.3-8.3 6.1-11.3" fill="#ce617d"/>
<path d="m591.11 316.5c-1.8-2-3.6-3.6-3.6-6.2l1-0.6c2.2 1.4 4.2 2.9 5 5.5l-0.4 1c-1 0.2-0.9 0.3-2 0.3" fill="#726f76"/>
<path d="m546.21 282.4c1 1.5 0.4 1.1 1.8 1.5l1.2-0.6c1.3 0.6 0.9 0.1 1.4 1.4l-1 2c1.2 0.8 1.6 0.6 3.2 0.7l0.4 0.7-1.6 1.5c1 2.3 6 2.6 6.7 5.1 0.4 1.3-1.8 5.3-1.4 7.2 2.7 0.7 1.3-1.5 3 0l-0.6 1.3c1.2 0 0.6 0.1 1.8-0.2 0.3 1.3 0.2 0.7-0.8 2.4 2.91 0.833 5.471 2.588 7.3 5l0.7-0.8c1.2 2.2 2.2 5 4.5 5.8l-1.5 0.8 0.6 0.5 0.6-0.1 2.5-0.5c0 1 0 0.6-0.4 1.5 1.3 0.3 1.3 0.3 2.6 0 4.1-5.5 7.7-1.1 13.1-0.2 2.734 0.933 5.6 1.5 8.6 1.7l1.7 1.1c-2.2-0.3-4.3-0.8-6.4-0.3l-1 0.8c3.3 1.1 7.8 0.5 11.3 0.3-6.7 3.6-10.6 0-17-0.2-7.8-0.3-14.3 4.3-19.9-4-4.9-5.1-12.3-7.8-15.4-12.4-0.6-2.7-0.3-8.2-1-10-1.4-4.1-5-7-5-12" fill="#dc6591"/>
<path d="m552.21 304.4 0.8 0.3c2.8 1.1 9.4 2.3 10.5 3.1 4.2 3.3 4.7 8.3 10.3 10.4l1 1.8c-2.3 0.8-5.1-2-6.8-3.5l-0.4 0.3c-4.9-5.1-12.3-7.8-15.4-12.4" fill="#ce617d"/>
<path d="m579.21 241.8c6.5-0.5 10.3 2.5 17 3.5 4.5 0.6 10.3 0 13.5 1.5-0.8 0.2-0.3 0.1-1.4 0h-0.6c-2.533 0-5.066-0.067-7.6-0.2-6.3-0.7-3.7 0-6.5 2.4-2 0-1.9 0-3.5-0.7-1.1-1.5-0.8-1-0.7-3.4-2-0.7-9.3-2.5-10.2-3" fill="#f5a5bf"/>
<path d="m595.21 307.8c-2-0.9-2-0.5-3-2 1.2-2.6 3.9-2.4 6.2-1.8 1.3 1.3 1 0.6 1 2.2l-1.4 1.9-2.8-0.3z" fill="#ab3f4c"/>
<path d="m614.71 303.5-0.3-1.2c1.6-2.6 3.2-3 6-3.8-0.333 3.333-2.233 5-5.7 5" fill="#784685"/>
<path d="m568.31 309.6c2-0.8 1-0.8 3-0.3 2 1.9 1.9 3.6 1.5 6.1-2.3-0.8-3.3-3.6-4.5-5.8" fill="#7c4257"/>
<path d="m577.71 262.4c-1-3-1.7-4.4-0.7-7.3l0.8-0.2c1.8 1 2 1.6 3.1 3.4l0.2 0.4 0.5 1.6c2.5 0.7 2.9 0 5 0.7l2.2 0.6c4.5-0.7 7.8 0.7 12.2 2 4 2 5 4.2 7 8.3-0.1 2-0.2 5.3-0.1 7.2 1.7 6-1.8 8-3.5 14.3l-1.7 4.3c-4.8 1-10.5 3.2-15.2 4.9-2.7-0.9-14.8-5-15.5-7.4-1.3-4.6-1.6-4.9-4.8-8.6 1.1-3.6 2.4-6.8 2.6-10.6 0.5-8.4-0.3-11 7.9-13.6" fill="#4d0f0a"/>
<path d="m577.71 262.4c-1-3-1.7-4.4-0.7-7.3l0.8-0.2c1.8 1 2 1.6 3.1 3.4l0.2 0.4 0.5 1.6c2.5 0.7 2.9 0 5 0.7-5.7 5.1-7.5 5-14 8.5-1.278 2.001-2.223 4.196-2.8 6.5 0.5-8.4-0.3-11 7.9-13.6" fill="#ce617d"/>
<path d="m577.71 262.4c-1-3-1.7-4.4-0.7-7.3l0.8-0.2c1.8 1 2 1.6 3.1 3.4-0.3 2.4 0.1 1.7-1.2 3.4l-2 0.7z" fill="#876178"/>
<path d="m588.81 261.6c4.5-0.7 7.8 0.7 12.2 2 4 2 5 4.2 7 8.3-0.1 2-0.2 5.3-0.1 7.2-2.7-3.2-2.8-5.2-4-8.8-1.4-4.2-9.6-5.4-14.5-8.3l-0.6-0.4z" fill="#ce617d"/>
<path d="m586.61 262.7c1.7-0.3 5.7 1.7 7.6 2.5 6.2 2.2 8.9 6 11.4 11.8 3 6.4-1.5 13.1-4.2 19.4l-11.5 4.2c-5 0.9-11.6-3.1-16.2-5.4-1.333-3.2-2.7-6.334-4.1-9.4 0.6-5.4 1.3-11 4-15.7 6-2.6 8-3.3 13-7.4" fill="url(#ax)"/>
<path d="m584.71 267.6c11.509-2.772 21.702 7.955 18.347 19.307-1.556 5.269-5.806 9.307-11.147 10.593-11.508 2.771-21.701-7.955-18.347-19.308 1.557-5.268 5.806-9.306 11.147-10.592" fill="#050201"/>
<path d="m586.31 272.3c7.941-1.878 14.937 5.545 12.593 13.361-1.181 3.935-4.529 6.834-8.593 7.439-8.071 1.201-14.416-6.785-11.421-14.375 1.274-3.227 4.045-5.627 7.421-6.425" fill="#9a9a99"/>
<path d="m607.91 271.9c0.7 2 0.9 3.4 2.6 4.5 2.1 1 3.3 1.2 4.8 3l0.3 1.3c-1.5 1.6-3.5 0.3-5.1-0.6-2.8 5 2.5 9.6-6.1 13.3 1.7-6.3 5.2-8.4 3.5-14.3v-7.2z" fill="#e6849d"/>
<path d="m610.51 276.4c2.1 1 3.3 1.2 4.8 3l0.3 1.3c-1.5 1.6-3.5 0.3-5.1-0.6-0.3-1.8-0.4-1.9 0-3.7" fill="#654c4c"/>
<path d="m599.31 257.3c3 0.1 5.5 0.5 5.3 4-1.4 2-1 1.4-3.6 2.3-4.4-1.3-7.7-2.7-12.2-2l-2.2-0.6c-2.1-0.8-2.5 0-5-0.7l-0.5-1.6c2.3 0.6 3.2 0.9 5.6 1h1.5c2.796 0.955 5.75 1.362 8.7 1.2 0.2-0.8 0.3-0.8 0.3-1.6l0.6-1.6 1.5-0.4z" fill="#e6849d"/>
<path d="m597.21 259.3 0.6-1.6 1.5-0.4c2 0.9 3.1 1.1 4.2 2.9v1.2c-2.6 1.8-4.8 0-6.3-2.1" fill="#c9763c"/>
<path d="m579.11 306.5c1-1.1 1.7-2.1 3.2-2.5l1.4 0.4c1.3 2.5-0.8 4.5-2.8 5.7-1.8 0.2-1.1 0.5-2.4-0.5l-0.4-1c-1-0.7-0.7-0.3-1.3-1.5l0.6-0.7 1.7 0.1z" fill="#e6a689"/>
<path d="m579.11 306.5c1-1.1 1.7-2.1 3.2-2.5l1.4 0.4c1.3 2.5-0.8 4.5-2.8 5.7-1.8 0.2-1.1 0.5-2.4-0.5l-0.4-1 2.2 0.1c1.7-1 2.5-1.2 3.2-2.7-1.1-1-0.5-0.8-1.9-1l-1.8 1.7-0.7-0.2z" fill="#8c5948"/>
<path d="m554.71 266.5c4.2 1.1 4 5.6 3 9-4.7-0.9-3.6-5.3-3-9" fill="#e78a78"/>
<path d="m615.81 288.2c3.3 1 6.2 3.5 6 7.1-5 0-6-2.7-6-7m-44.7 10.1c1.7-0.2 1.9-0.2 3 0.9 0 2.3-2 3.1-3.9 4-1.7-0.7-3.2-0.9-3.2-2.9 1-1.4 2.3-1.5 4.1-2" fill="#876178"/>
<path d="m559.61 287.4c3.5 0 6.4 1.1 6 5.2-2.2-0.4-3.9-0.5-5.6-2-1-2-0.8-1-0.4-3.2m59.8-5.6c1-1.9 1.6-3.1 3.9-3.3 1.3 1.3 1 0.9 1.5 3-1.5 1.7-2 2.5-4.4 2.7-1-1.2-0.7-0.5-1-2.4" fill="#ab3f4c"/>
<path d="m619.41 281.8c1.7-1.5 1.8-2.1 3.5-2.1l0.8 1.1c-1.4 1.8-1 1.8-2.7 2.5-1.2-0.7-0.8-0.4-1.6-1.5" fill="#e6a689"/>
<path d="m566.11 256c4.7-0.5 6 1.3 6.7 5.4h-1.9c-3-1.3-3.3-2.5-4.8-5.4" fill="#cb5a41"/>
<path d="m619.71 267.3c0.8 0.2 0.7 0.2 1.5 0.7v1.2c-1 2.1-1.8 2.8-3.5 4.4-1.5-0.9-1-0.3-1.7-1.7 0.5-2 2.2-3.2 3.7-4.6" fill="#ab3f4c"/>
<path d="m612.11 253.6c1.7 0.6 1.9 0.5 3 2 0.7 2 0.3 2.9 0 5-1.9 0-1 0.2-2.5-1-0.8-2-0.5-3.9-0.5-6" fill="#654c4c"/>
<path d="m586.71 259.6c0.4-2.8 1.2-5.5 4.6-5.6l0.6 0.8c-0.3 2.1-2.1 3.4-3.7 4.9l-1.5-0.1z" fill="#784685"/>
<path d="m600.11 248.6c1.2 0.2 1.1 0.2 2.2 0.7l0.3 0.9-1.4 1.2 0.2 0.6c1.4 0.2 2 0.1 3.5 0l0.6 0.1v0.9l-1 0.7c-2.3 0-3.3 0.2-5-1.5-0.2-2-0.3-1.9 0.6-3.6" fill="#ab3f4c"/>
<path d="m580.71 245.7c1.4 1.3 1.1 0.5 1.3 2.1-1 1.5-3 2.5-4.7 3.4h-1v-0.8c1.5-2.2 2.4-3 4.4-4.7" fill="#7c4257"/>
<path d="m608.51 291.8c2.8 1.2 2.6 4.1 2 6.7l-1.6-0.4c-1.6-2.3-1-3.4-0.4-6.3" fill="#876178"/>

    </svg>
  </g>
</svg>
