<svg xmlns="http://www.w3.org/2000/svg" width="44" height="43" viewBox="0 0 44 43">
  <defs><clipPath id="clip_sgtvietnam_04"><rect x="0" y="0" width="44" height="43"/></clipPath></defs>
  <g clip-path="url(#clip_sgtvietnam_04)">
    <svg x="4.86" y="9.02" width="32.56" height="31.82" viewBox="611.37 -264.21 319.95 383.2667" preserveAspectRatio="xMidYMid meet" style="overflow:hidden">


<path d="m775.26-222.25c22.1-2.6 18.4 19.1 18.9 33.3 0.5 16.5 0 33.4 1 49.8 3-19.2 7.4-40.9 11.6-60 1.2-5.7 10-10.3 15.8-9 11.3 2.6 13.6 12.4 11.5 22.5-3 19-5.3 37.8-8.7 56.6 3.4-7.9 5.6-17.2 8.7-25.2 2.4-6 3.4-11.9 7.3-17 5.2-7 14.5-6.7 20-1 2.7 2.8 4.1 6.6 4 10.6-0.3 4.6-2.9 12.4-4.2 17.3-3.4 13-7.4 26.4-10.5 39.5-1 5.7-1.5 12.397-1.6 18.197-0.4 32.9-12.2 67.6-48.2 75-23.131 4.314-46.949-2.417-64.4-18.2-14-12.4-18.4-27-28.6-41.4-8.5-11.4-17.6-22.2-26.3-33.397-8.7-11.2 6.7-20.1 16.6-19.5 18.8 1.2 26.6 18.2 37.8 29.997 0.3-25.097-7.8-48.397-12.2-72.997-2.2-12.9-10.5-31.5 7.5-36.9 6.2-1.9 14.5 2 16.8 8.1 2.8 7.4 4.3 15.4 6.2 23.1l9.3 37.8c-0.6-10.2-1-72.6 1.3-78.3 2-4.8 5.9-7 10.4-9" fill="#010201"/>
<path d="m776.16-217.25c11.5-0.6 13.1 6.8 13 16.5 0 21.3 0.7 42.3 0.9 63.7 0 2-1.8 19.4 7 12 1-1 2.8-11.7 3.3-14.2l6.8-37c1.2-6.8 2.2-20.5 7.4-25 5-4.5 13.9-0.6 15 5.8 0.8 5-1.2 13-2 18.4l-5.8 39.6c-1 6.2-2.2 12.5-2.6 18.7-0.3 3.2 1.4 4.5 4.2 4.8 4-1.9 5.9-9.8 7.3-13.9l8-23.4c1.5-4.6 2.7-9.6 5-13.9 1.3-2.7 3.5-5.4 6.5-6.3 1.866-0.4 3.6-0.07 5.2 1 2 1.2 4.2 3.6 4.5 6 1 7-11 45-13.6 55.8-3.8 16.097-1.7 32.997-5.7 49.197-2 8.3-5.4 16.5-10.4 23.3-8.826 11.719-22.191 19.164-36.8 20.5-26.936 2.507-52.904-10.73-66.7-34-5-8.3-9.2-17.4-15-25.2-8.1-11-17.3-21.4-25.5-32.397-0.8-1.2-2.4-3.5-1.6-5 3.2-6.8 13-7.4 18.8-5.7 15.7 4.7 19.8 21.897 32.8 29.397 1.1 0.6 2.2 0 3.1-0.4 8.6-12.897-12.9-79.597-14.2-98.997-0.2-3.2 0.3-5.8 2.6-8.2 2-2 4.433-3 7.3-3 2.8 0 5.6 1.2 7.2 3.5 3.2 4.6 4.2 12.7 5.6 18.2 1.8 7.3 11.7 51.4 14.4 53.7 0.866 0.66 1.866 1 3 1 4.5-2.5 2.9-13.4 2.9-18.3l0.4-36.8v-21.6c0.2-8.9-1.2-13.5 7.7-17.8" fill="#edbd92"/>
<path d="m785.46-100.65c3.8 2.197 6.5 6.997 8.8 10.697 3.2-1.9 9-6.2 12.6-5 2.5 2.7 2.3 7.1 2.7 11 3.9-0.5 9.2-2 11.5 1.7 0.5 3.6-3 10.9-4.6 14.6 4.8 2.5 7.2 3.9 11.1 7.5-12 12.6-26.4 17.1-41.7 6.7-14.5 9.4-31 6.9-41.6-6.8 3.8-3.7 6.4-5 11-7.3-1.8-4-6.3-11.9-4.2-15.8 3.5-2.2 6.5-1.1 10.8-0.6 0.3-3.8 0-9.5 3.7-11.4 3.5-0.1 8.4 3.5 11.6 5.4 2.6-4.3 4.9-7.1 8.3-10.697" fill="#412314"/>
<path d="m785.46-96.553c6.6 3.4 12.2 19.6 10 26.8-1.321 5.137-4.729 9.487-9.4 12-1.6-0.2-2.934-0.933-4-2.2-12.2-10.8-5.3-26.5 3.4-36.6" fill="#eb879c"/>
<path d="m765.76-92.653c4 1.8 6.4 2.8 10.2 5.1-4.2 9.9-4.6 17.2 1.1 26.7l0.3 0.3-0.7 0.2c-12-6.7-13-20.3-10.9-32.3m39 0.3c0.9 0.6 0.8 0.4 1.1 1.4 2.9 10.5-1.1 26.8-12.1 30.8 7-9.5 5.5-17.1 2-27.4l9-4.8z" fill="#eb879c"/>
<path d="m756.06-64.853c4.9 1 5.8 9.8 25.2 11-2.678 1.364-5.494 2.437-8.4 3.2-11 0.9-16.9-2.5-24.7-9.4 2.523-1.828 5.2-3.434 8-4.8m58.8-0.2c3.4 1.7 5.4 3 8.6 5-7.7 6.9-14 9.8-24.4 9.5-3.9-0.8-5.6-1.5-9.3-3 12.9-1 16.4-1.7 25.1-11.5" fill="#84ab51"/>
<path d="m753.36-81.653c3.2 0 5.5 0.2 8.7 0.5 1.6 12.3 4.4 18 15.6 24.4-14.4 0.1-21.6-12.6-24.3-25m58.4 0.3 6.6-0.2c-2.8 10.7-6.3 19-17.2 23.7-2.134 0.467-4.334 0.8-6.6 1 6.815-3.135 11.773-9.276 13.4-16.6 0.7-2.4 0.8-5.1 2-7.3l1.8-0.6z" fill="#eb879c"/>




































<g transform="matrix(.94683 .32173 -.32173 .94683 3e-6 -1.3e-5)" style="transform-origin:-196.688px -118.958px">



</g>









































































































    </svg>
  </g>
</svg>
