<svg xmlns="http://www.w3.org/2000/svg" width="44" height="43" viewBox="0 0 44 43"><defs><clipPath id="clip_sgtcool_01"><rect x="0" y="0" width="44" height="43"/></clipPath></defs><g clip-path="url(#clip_sgtcool_01)"><svg x="-0.23" y="0.5" width="44" height="43" viewBox="0 0 308 288" preserveAspectRatio="xMidYMid meet" style="overflow:hidden"><g transform="translate(0 0)" data-sgt-offset="1"><path fill="#344969" d="m154 136 2 1c7 3 33 30 40 36 6 5 34 32 37 37l-1 1c-6 3-23 3-30 3 4 11 12 25 15 37-3 4-14 9-20 8-5-3-15-29-18-36-4 4-17 20-24 21l-2-2v-39c0-13-2-56 1-67Z" data-index="28"/><path fill="#F7F8F9" d="m156 145 1-3 72 68c-9 0-24-1-33 1 5 12 14 28 17 39l-8 4-7 3c-6-12-11-26-18-38-8 5-17 15-24 21v-95Z" data-index="29"/><defs><linearGradient id="d" x1="190" x2="147.8" y1="193.5" y2="224.5" gradientUnits="userSpaceOnUse"><stop offset="0" stop-color="#CDDEF0"/><stop offset="1" stop-color="#FAFCFE"/></linearGradient></defs><path fill="url(#d)" d="M156 145c7 10 14 28 19 39l30 70-7 3c-6-12-11-26-18-38-8 5-17 15-24 21v-95Z" data-index="30"/></g></svg></g></svg>
