<svg width="44" height="43" viewBox="0 0 44 43" fill="none" xmlns="http://www.w3.org/2000/svg">
<g transform="translate(5.76 8.79) scale(0.84)">
<g transform="translate(-257.978758 -103.126169) scale(1.331056798)" clip-path="url(#clip_r2c4)">



<g>






</g>




<g clip-path="url(#clip0_1_317)">








</g>










<path fill-rule="evenodd" clip-rule="evenodd" d="M214.719 87.556C214.367 87.299 213.975 87.199 213.542 87.258C213.334 87.286 213.162 87.347 213.019 87.432C213.024 87.273 213.012 87.122 212.976 86.98C212.901 86.683 212.761 86.439 212.556 86.247C212.351 86.055 212.105 85.917 211.818 85.832C211.558 85.754 211.293 85.731 211.023 85.764C210.752 85.797 210.51 85.889 210.295 86.042C210.225 86.092 210.173 86.156 210.117 86.217C210.078 86.148 210.042 86.077 209.987 86.013C209.821 85.821 209.61 85.673 209.353 85.569C209.096 85.465 208.823 85.412 208.537 85.412C208.244 85.412 207.968 85.465 207.712 85.569C207.455 85.673 207.243 85.821 207.077 86.013C207.023 86.075 206.989 86.145 206.949 86.213C206.912 86.171 206.881 86.123 206.838 86.086C206.662 85.936 206.455 85.834 206.217 85.778C205.98 85.723 205.741 85.715 205.5 85.754C205.194 85.799 204.919 85.914 204.674 86.096C204.43 86.278 204.25 86.524 204.132 86.833C204.023 87.122 204.01 87.464 204.077 87.847C203.507 87.777 202.977 87.943 202.492 88.356C201.991 88.783 201.743 89.455 201.75 90.373C201.756 91.857 202.038 93.175 202.594 94.328C203.151 95.48 203.934 96.381 204.943 97.028C205.952 97.676 207.121 98 208.449 98C209.66 98 210.695 97.787 211.555 97.36C212.414 96.934 213.11 96.317 213.64 95.509C214.17 94.703 214.556 93.703 214.797 92.511C214.927 91.881 215.029 91.261 215.105 90.656C215.18 90.05 215.224 89.41 215.236 88.732C215.243 88.205 215.07 87.813 214.719 87.556Z" fill="black" style="fill:black;fill-opacity:1;"/>
<path fill-rule="evenodd" clip-rule="evenodd" d="M204.263 88.9171L204.509 90.1871C204.555 90.4281 204.675 90.5821 204.87 90.6461C205.066 90.7121 205.243 90.6801 205.403 90.5531C205.562 90.4261 205.616 90.2461 205.564 90.0111L205.056 87.5801C204.997 87.3261 205.071 87.1211 205.276 86.9651C205.481 86.8091 205.708 86.7501 205.959 86.7891C206.21 86.8281 206.371 86.9751 206.443 87.2291L206.589 87.7561C206.641 87.9581 206.763 88.0851 206.955 88.1371C207.148 88.1891 207.331 88.1661 207.507 88.0691C207.683 87.9711 207.771 87.8281 207.771 87.6391V86.9651C207.771 86.7891 207.844 86.6481 207.991 86.5401C208.137 86.4331 208.315 86.3791 208.523 86.3791C208.725 86.3791 208.899 86.4331 209.046 86.5401C209.192 86.6481 209.265 86.7891 209.265 86.9651V87.6391C209.265 87.8211 209.353 87.9631 209.529 88.0641C209.705 88.1651 209.888 88.1891 210.081 88.1371C210.273 88.0851 210.395 87.9581 210.447 87.7561L210.603 87.2091C210.669 86.9681 210.825 86.8281 211.072 86.7891C211.319 86.7501 211.546 86.8091 211.751 86.9651C211.956 87.1211 212.032 87.3261 211.98 87.5801L211.824 88.4591C211.778 88.6931 211.824 88.8761 211.961 89.0061C212.097 89.1361 212.263 89.1981 212.459 89.1911C212.654 89.1851 212.801 89.1131 212.898 88.9761L213.152 88.5661C213.243 88.4291 213.379 88.3501 213.557 88.3271C213.736 88.3041 213.897 88.3411 214.041 88.4391C214.184 88.5371 214.256 88.6771 214.256 88.8591C214.256 89.4001 214.217 89.9181 214.138 90.4121C214.06 90.9071 213.946 91.4761 213.797 92.1211L213.738 92.3941C213.511 93.4101 213.184 94.2471 212.762 94.9041C212.339 95.5621 211.777 96.0581 211.077 96.3931C210.377 96.7291 209.512 96.8961 208.484 96.8961C207.344 96.8961 206.345 96.6171 205.486 96.0561C204.626 95.4971 203.965 94.7171 203.503 93.7171C203.041 92.7181 202.81 91.5811 202.81 90.3041C202.81 89.8491 202.909 89.4991 203.108 89.2551C203.306 89.0101 203.544 88.8781 203.821 88.8541C203.984 88.8411 204.128 88.8681 204.263 88.9171Z" fill="white" style="fill:white;fill-opacity:1;"/>

























</g>
</g>
<defs>








<clipPath id="clip0_1_317">
<rect width="16.9998" height="28.5186" fill="white" style="fill:white;fill-opacity:1;" transform="translate(267 21.6)"/>
</clipPath>

<clipPath id="clip_r2c4"><rect x="176.5" y="60.5" width="61" height="61"/></clipPath>
</defs>
</svg>