<svg xmlns="http://www.w3.org/2000/svg" width="44" height="43" viewBox="0 0 44 43">
  <defs><clipPath id="clip_sgtkorea_05"><rect x="0" y="0" width="44" height="43"/></clipPath></defs>
  <g clip-path="url(#clip_sgtkorea_05)">
    <svg x="4.11" y="4.55" width="38.28" height="37.41" viewBox="-234.95 44.05 310.875 387.2" preserveAspectRatio="xMidYMid meet" style="overflow:hidden">












































































































<path d="m-98.724 150.23c10.934-0.867 18.534 3.733 22.8 13.8l2.7-1.4c13.5-6.2 23 1.2 28.4 13.2 7.4-2.5 15.1-2.5 21.1 3.4 9.4 9.3 9.2 30.2 9.4 42.7 0.2 16.6-1.9 36.1-6.7 51.9-2.5 8.3-7.6 17-9.7 25.7-2.2 8.2 0.8 18.4-5 25-3.9 3.6-17.4 2.6-22.8 2.6h-29.7c-10.3 0-25.096 0.9-34.996-1-7.8-1.5-7.4-11.9-8-18-1-11.2-7.9-15.6-15.1-23-7.34-6.971-13.72-14.872-19-23.5-6.24-12.854-8.07-27.404-5.2-41.4 3.1-11.6 14.3-21.8 24.7-27.6 0-10-1.6-21.6 4.7-30 7.9-10.8 19.3-10.2 29.3-3 4.5-5.8 6-7.4 12.996-9.5" fill="#131d41"/>
<path d="m-98.924 157.63c16.6-2.4 17 11.7 18.2 24 0.4 4.267 0.867 8.533 1.4 12.8 0.5 4.1-0.1 8 2.6 11.5 0.9 1.2 1.5 1.8 3 2 8-4.9-8.2-37 4.8-39.7 23.7-5.1 18 28.7 21 42 0.4 1.9 1 2 2.4 2.9 2.2 0 1.2 0.2 3-0.9 4.7-7.4-4.8-26.2 2.8-31.2 27.8-6 16.8 74.4 12.8 88-2.8 9.6-7.6 18.5-10.5 28.1-1.8 6.1-0.6 16.5-3.1 21.8-3 1.8-47.2 1-54 1-3.2 0-27.196 1-27.996-1.5-2-7.5-1-18.4-6.4-25.2-7.8-10-18-17.5-25.3-28-8.44-11.434-12.04-25.734-10-39.8 1-10.1 10.5-18.9 18.5-24.7 0.4 7 0.8 13.5 0.2 20.5-0.4 4-4 8.8-0.4 11.9 1.3 0.2 2 0.2 3.2-0.5 8.8-5.2 2-48 4.8-59.5 0.9-4 2.7-7.8 6.3-9.9 3.2-1.7 7.7-2.1 11-1 11.7 4 6.3 31.7 11.5 40.9 0.7 1.3 1.3 1.6 2.6 2 1.7-0.5 1.6-0.6 2.8-1.8 1-3-2.8-31.6-3.5-37 2.1-4.9 4-6.2 8.296-8.7" fill="#f0bd98"/>
<path d="m-108.83 249.57c5.54-19.164 29.743-25.144 43.57-10.766 6.418 6.672 8.788 16.261 6.216 25.156-5.538 19.162-29.745 25.144-43.576 10.766-6.41-6.672-8.78-16.262-6.21-25.156" fill="#0e4894"/>
<path d="m-108.83 249.57c5.98-19.053 30.344-24.485 43.853-9.779 6.27 6.826 8.421 16.477 5.646 25.32-1.583-5.037-4.317-12.231-10.073-13.958-11.512-3.598-17.843 16.26-29.926 11.368-5.76-2.303-7.63-7.483-9.5-12.807" fill="#c93539"/>
<path d="m-126.81 242.81 13.23-19.858c2.59 1.295 2.45 0.876 3.17 2.891-3.91 5.065-13.58 18.924-14.39 18.694l-2.01-1.727z" fill="#08070b"/>
<path d="m-133.29 239.07c-2.3-2.163-1.7-0.713-2.88-2.878 2.07-4.453 9.24-14.858 12.95-19.282 2.31 0.575 1.44 0 2.88 2.158-1.74 0.876-13.63 20.327-12.95 20.002z" fill="#08070b"/>
<path d="m-113.58 222.95c1.8 0.976-0.38 0.888 1.52 2.576-5.65 4.654-12.74 19.009-12.74 19.009l-2.01-1.727c4.31-4.893 10.07-14.39 13.23-19.858" fill="#08070b"/>
<path d="m-37.836 226.7c1.44 1.285 6.187 7.244 6.277 10.643l-2.878 1.439c-2.786-4.763-4.145-5.222-6.245-10.277m-6.85-10.444c-1.086-0.114 2.456-0.839 3.908-1.658 0.898 1.24 5.971 6.844 5.251 8.427l-3.115 1.864c-2.734-2.877-3.265-4.144-6.044-8.633m-5.468 3.453c1.439-1.439 1.871-1.439 3.597-2.158 4.317 6.907 8.827 13.67 13.527 20.289l-3.166 2.59c-3.741-4.604-10.505-15.397-13.958-20.721m-1.727 1.439c2.015 2.878 5.219 6.176 6.648 9.273l-3.02 2.245c-2.344-4.05-6.143-8.587-6.555-9.797l2.927-1.721zm7.52 10.912c3.704 3.482 3.947 5.03 6.294 8.802l-2.788 2.361c-3.625-3.895-5.473-6.472-6.212-9.426" fill="#08070b"/>
<path d="m-120.19 295.91c-1.73 0.719-2.31 1.295-4.18 0.863-2.88-4.173-11.8-15.541-11.37-20.433l2.45-1.439c3.89 6.331 9.79 14.965 13.1 21.009m-6.34-25.614 2.45-1.439c4.03 1.439 13.24 16.404 13.38 20.577l-1.15 1.008c-1.44-0.144-1.15 0-2.16-0.576-4.03-6.619-8.2-13.142-12.52-19.57m-1.44 1.439c2.02 3.022 4.7 5.595 5.85 9.048l-3.65 1.677c-2.61-1.99-4.35-5.545-6.08-8.71l3.88-2.015zm8.64 22.304c-1.44-4.749-2.41-3.377-4.45-8.989l3.15-1.576c2.1 2.359 2.87 3.959 4.75 6.536 0.58 2.446 0.72 1.439-0.43 3.31l-3.02 0.719z" fill="#08070b"/>
<path d="m-53.144 292.17c2.767-3.207 3.728-6.566 5.983-8.636l3.519 1.619c-0.409 4.043-4.215 6.719-5.761 9.32-1.582-0.72-2.302-1.295-3.741-2.303m2.177-15.24c0.921-4.412 4.628-7.346 5.497-9.061 2.305 0.741-0.911-0.593 4.557 2.285-2.158 3.454-3.332 6.874-6.354 9.32m8.081-7.881 3.31 2.159c-2.015 2.737-2.825 6.675-6.27 8.723l-2.685-1.901c0.432-3.454 3.487-6.103 5.501-8.981m4.749 3.885 2.302 0.288 0.863 1.151c-1.879 3.791-2.916 5.725-5.065 9.328-1.965-0.051-1.155-0.419-3.424-0.982 0.287-1.439 4.316-7.77 5.324-9.785m-12.807 20.146c2.014-3.454 3.597-6.763 6.475-9.497l2.883 3.024c-1.976 3.401-3.661 4.632-5.473 7.971-2.59 0.432-1.439 0.229-3.885-1.498m-7.483-4.605-3.083-2.941c-0.772-0.462 4.721-8.894 5.492-8.432 2.546-0.259 1.746 0.464 3.491 1.588-2.014 4.317-3.022 5.756-5.756 9.641" fill="#08070b"/>

























<g transform="matrix(.98693 .16117 -.16117 .98693 0 -3e-6)" style="transform-origin:-92.7098px -185.863px">






</g>







































































<path d="m-118.86 219.57c2.59 1.295 2.46 0.72 3.17 2.734-3.97 5.159-12.79 19.635-13.43 19.243l-2.98-2.119c3.8-4.284 9.17-12.604 13.24-19.858" fill="#08070b"/>
<g transform="matrix(0 1 -1 0 234.31 306.99)" style="transform-origin:-17.3734px 332.579px">
<path d="m-20.437 201.46c2.8-0.4 7.2-0.6 9.2 1.8 12.934 15.8 25.6 31.8 38 48 2.3 3 1.7 9-1.2 11.5-5.6 4.7-18.3 2.1-25.3 1.8v16.9c5.6 0 9.8 0.2 14.4 4.2 2.984 2.6 4.728 6.342 4.8 10.3 0.1 5.4-2.3 8.7-5.7 12.3 7.5 8.5 8.2 16.6-0.5 24.6 8 8.2 8.4 15.8 0.4 24.2 3.5 3.8 5.9 7 5.8 12.6 0 4.133-1.5 7.567-4.5 10.3-4.6 4.4-9 4.6-14.8 4.5l-0.1 16.4c6.5-0.2 14-1.7 20.4-0.5 2.744 0.343 5.178 1.929 6.6 4.3 1.202 2.169 1.455 4.738 0.7 7.1-1.2 4-33.2 44.2-38 49-1.066 1.133-2.3 2.067-3.7 2.8-3.3 0.7-7.5 0.7-9.996-2.1-11.3-13.2-21.3-27-32.3-40.6-4.2-5-10.3-12.4-3.8-18.3 4.6-4.1 18.8-2 25-1.7l-0.1-16.3c-5.9 0-10.3-0.4-14.9-5-2.87-2.801-4.4-6.697-4.2-10.7 0.2-5 2.7-8.3 6.1-11.5l-2.2-2.3c-2.82-3.17-4.17-7.384-3.7-11.6 0.6-5 2.6-7.4 6.3-10.2-8.3-8-8.9-16.5-0.4-24.6-3.5-3.5-5.9-7-6-12.1-0.11-3.802 1.33-7.485 4-10.2 4.5-4.7 9.1-4.8 15-4.9v-17c-6.4 0.2-13.7 1.9-20 0.7-2.56-0.2-4.87-1.613-6.2-3.8-1.2-2-2-4.7-1.4-7 1.1-4.4 33.5-44.7 38.4-50 1.12-1.208 2.44-2.222 3.896-3" fill="#131d41"/>
<path d="m-17.937 207.86c3.2 1 13 15.1 16 18.7 4.2 4.9 8.6 11 12.7 16 3.2 3.8 7.4 9 9.9 13.2 0 1.5 0.2 0.8-0.9 1.9-4.3 1.4-20.7-0.3-26.5-0.6-0.3 7.6-0.1 16.7-0.1 24.4h-21.196c0.2-8 0.2-16.067 0-24.2-5.7-0.1-24.4 2.3-27.3-0.2-0.14-1 0.1-2 0.7-3 12.2-15.2 24.2-31.1 36.696-46.2m-10.096 176.7h21.196v23.5c7.6 0.4 18.1-1.6 25.8-0.8 1 0.1 1.2 0.9 1.6 1.6-0.6 3.6-28.6 37.6-32.8 43-1 1.2-2.5 3.7-4 4.3-0.666 0.4-1.333 0.5-2 0.3-13.156-15.163-25.546-30.983-37.096-47.4-0.2-0.8 0.2-1 0.6-1.5 4.2-1.3 20.7 0.4 26.5 0.4 0.5-6.9 0.3-16.4 0.2-23.5" fill="#fefdfc"/>
<path d="m-48.633 294.06c1.4-2.6 3.8-6.4 7.2-6.7 14.9-1.3 30.396-0.6 45.396-0.4 5.6 0 7.8 2.9 10.2 7.4 0 12.8-9.7 11.7-19.4 11.7-11.333 0.133-22.666 0.067-33.996-0.2-7-0.3-9.7-5.5-9.4-11.9" fill="#f6bac6"/>
<path d="m14.163 294.36c0 12.8-9.7 11.7-19.4 11.7-11.333 0.133-22.666 0.067-33.996-0.2-7-0.3-9.7-5.5-9.4-11.9 0.7 4 4.8 6.8 8.7 7 9.8 0.4 19.63 0.5 29.496 0.3 9.4-0.1 18 1.4 24.6-6.9" fill="#e88c9f"/>
<path d="m-39.333 290.36c4.1-0.1 18.896-0.5 21.896 1.2v1l-1.5 1.6c-3.3 0.4-18.196 1.3-21.096-0.7-0.6-0.4-0.5-0.8-0.5-1.6l1.2-1.5z" fill="#eddde7"/>
<path d="m-48.533 342.66c1.6-3.2 3.2-5.3 6.7-6.5 5-1.6 47.596-1.3 51.196 1 2.3 1.3 3.6 3.5 4.8 5.8 0 4.1-1.7 10.6-6.7 11.1-15.2 1.4-30.796 0.5-45.996 0.6-7.2 0-10.6-5.3-10-12" fill="#63904d"/>
<path d="m14.163 343.06c0 4-1.7 10.5-6.7 11-15.2 1.4-30.796 0.5-45.996 0.6-7.2 0-10.6-5.3-10-12 0.6 2.8 1.8 3.7 3.8 5.8 7.2 2.3 47.596 3 53.596-0.2 2.1-1.2 4.4-3 5.3-5.3" fill="#407142"/>
<path d="m-37.233 339.06c4.4-0.1 19.496-1.2 21.796 2.2-0.6 1.5 0 0.8-2 1.9-4.6 0.2-19.596 2-21.896-1.9 0.7-1.8 0.1-1 2.1-2.2" fill="#98bb78"/>
<path d="m-48.533 318.66c1-2.4 2-4.7 4.5-6 3.8-2.2 46.696-2.2 51.696-0.7 3.3 1 4.8 3.6 6.4 6.5 0.1 4.7-1.3 10.7-7 11.3-13.8 1.6-28.2 0.3-41.996 0.6-8.4 0.2-14.2-2.3-13.6-11.7" fill="#fefdfc"/>
<path d="m14.063 318.46c0.1 4.7-1.3 10.7-7 11.3-13.8 1.6-28.2 0.3-41.996 0.6-8.4 0.2-14.2-2.3-13.6-11.7 0.4 2.1 0.3 2.7 2 4 5 3.5 13 2.8 18.8 2.8 10.296 0 20.396 0.2 30.596-0.3 5.3-0.2 8-2.8 11.2-6.7" fill="#dbd9d3"/>
<path d="m-48.633 367.06c1.2-2.3 3.4-6.2 6.4-6.5 15.5-1.3 31.796-0.7 47.496-0.3 4.6 0 7 3.4 8.8 7.2 0.1 6.5-2.4 10.7-9.1 11.3-10.9 0.8-22 0.5-32.896 0.4-10.2-0.1-21 1.4-20.7-12.1" fill="#e88c9f"/>
<path d="m14.063 367.46c0.1 6.5-2.4 10.7-9.1 11.3-10.9 0.8-22 0.5-32.896 0.4-10.2-0.1-21 1.4-20.7-12.1 1.3 7.4 9.5 7.2 15.6 7.2 12.696-0.1 25.896 0.6 38.496-0.5 3.3-0.4 6-4.2 8.6-6.3" fill="#d26784"/>
<path d="m-36.633 363.66c4.4-0.2 18.996-1.3 21.196 1.9-0.7 1.5-0.2 0.9-1.9 1.7-4.2 0.4-18.596 1.7-21.296-1.3 0.5-1.7 0.2-1 2-2.3" fill="#f6bac6"/>
</g>

    </svg>
  </g>
</svg>
