<svg xmlns="http://www.w3.org/2000/svg" width="44" height="43" viewBox="0 0 44 43">
  <defs><clipPath id="clip_jepriwin11_11"><rect x="0" y="0" width="44" height="43"/></clipPath></defs>
  <g clip-path="url(#clip_jepriwin11_11)">
    <svg x="2.71" y="3.45" width="43.12" height="42.14" viewBox="358.9 394.6333 262.5 258.9667" preserveAspectRatio="xMidYMid meet" style="overflow:hidden">
<path style="stroke-width:1" d="M488.6 510.4c8.3-3.9 17.8 8.8 22.8 14 1.6-3.6 2.7-6.2 6.8-7.7 2.4-.9 5-.6 7.3.6 3.9 2.1 4.6 5 5.6 8.7-1.1 19.9 6.2 34.2-21.8 32-7.7-.7-17.2 1.4-20.4-8 0-7.5 2.2-9.2 8.6-11.8-4.5-5.1-10.4-9.8-14.1-15.6-1-5 .3-9.9 5.2-12.2Z"/><path style="stroke-width:1" d="M491.7 514.9c3.8.5 20 18.9 25.3 23.2.4-3.6-.3-12.8 1.2-15 1.3-1 1.4-1 3-1.1 4.4 1.4 4.4 8.6 4 12.4-.6 5.6 1.7 14.2-3.3 17.5l-18.3.1c-3.6 0-7.5 0-8.9-3.9 1.3-6 11.2-4.1 16.6-4.4-3.8-4-22.2-21.6-22.5-25 .5-1.8 1.6-2.6 2.9-3.8Z" fill="#FCFCFB"/><path style="stroke-width:1" d="M446 451.5c4.4-.2 10-.2 14.5.9 10.5 4 8.2 15-1 19.2 5.2 5.8 14.2 12.8 13.9 20-4.5 15.5-18.3 5.6-24-2-1-1.3-3.1-3.1-4.4-4.2-3.2 6.6-9.5 11.8-16.8 5.7-5.2-4.4-3.1-21.2-3.4-28.7 2.5-13 10.2-10.5 21.1-11Z"/><path style="stroke-width:1" d="M433.6 457.6c5.7-.2 21-.7 25.8.8.8.6 1.8 1.5 2 2.7.5 5.9-12.4 4.4-16.5 4.4 6.2 6.9 12.6 13.1 19.2 19.7 1.6 1.7 3.3 3.4 3.2 5.8-.5 1.6-1.6 2.2-3 3.3-3.7-.8-21.1-19.4-25.3-23.5-.1 3.8.6 12.4-.9 15.4-1.2 1.2-1.3 1.2-3 1.6-4.8-1.2-4.7-8-4.3-12 .4-5.5-1.5-14.7 2.8-18.2Z" fill="#FCFCFB"/>
    </svg>
  </g>
</svg>
