<svg width="44" height="43" viewBox="0 0 44 43" fill="none" xmlns="http://www.w3.org/2000/svg">
<g transform="translate(4.17 3.16) scale(1)">
<g transform="translate(-53.643571 -2.101714) scale(0.837571429)" clip-path="url(#clip_r1c2)">

<!-- ANIMATED LOADING WHEEL (BEACHBALL) -->
<g>
<animateTransform attributeName="transform" type="rotate" from="0 85.5 24.5" to="360 85.5 24.5" dur="1s" repeatCount="indefinite" />
<path d="M81.0455 15.5445C81.819 15.6404 82.5864 15.8896 83.3038 16.3039C86.1736 17.9607 87.1568 21.6303 85.5 24.5C83.8431 21.6303 80.1736 20.647 77.3038 22.3039C76.5874 22.7175 75.9886 23.2565 75.5191 23.8772C75.7438 20.2206 77.9335 17.0954 81.0455 15.5445Z" fill="url(#paint0_linear_1_317)"/>
<path d="M75.5191 23.8772C75.9886 23.2565 76.5875 22.7175 77.3038 22.3038C80.1736 20.647 83.8431 21.6302 85.5 24.5C82.1863 24.5 79.5 27.1863 79.5 30.5C79.5 31.3277 79.6676 32.1162 79.9707 32.8336C77.276 31.0421 75.5 27.9784 75.5 24.5C75.5 24.2908 75.5064 24.0832 75.5191 23.8772Z" fill="url(#paint1_linear_1_317)"/>
<path d="M79.9707 32.8336C79.6676 32.1163 79.5 31.3277 79.5 30.5C79.5 27.1863 82.1863 24.5 85.5 24.5C83.8431 27.3698 84.8264 31.0393 87.6962 32.6962C88.4136 33.1104 89.181 33.3596 89.9545 33.4555C88.6131 34.124 87.1005 34.5 85.5 34.5C83.4556 34.5 81.5545 33.8865 79.9707 32.8336Z" fill="url(#paint2_linear_1_317)"/>
<path d="M89.9545 33.4555C89.181 33.3596 88.4136 33.1104 87.6962 32.6962C84.8264 31.0393 83.8432 27.3698 85.5 24.5C87.1569 27.3698 90.8264 28.353 93.6962 26.6962C94.4126 26.2825 95.0114 25.7435 95.4809 25.1228C95.2562 28.7794 93.0665 31.9047 89.9545 33.4555Z" fill="url(#paint3_linear_1_317)"/>
<path d="M95.4809 25.1228C95.0114 25.7435 94.4125 26.2825 93.6962 26.6961C90.8264 28.353 87.1569 27.3697 85.5 24.5C88.8137 24.5 91.5 21.8137 91.5 18.5C91.5 17.6723 91.3324 16.8837 91.0293 16.1664C93.724 17.9579 95.5 21.0215 95.5 24.5C95.5 24.7092 95.4936 24.9168 95.4809 25.1228Z" fill="url(#paint4_linear_1_317)"/>
<path d="M91.0293 16.1664C91.3324 16.8837 91.5 17.6723 91.5 18.5C91.5 21.8137 88.8137 24.5 85.5 24.5C87.1569 21.6302 86.1736 17.9607 83.3038 16.3038C82.5864 15.8896 81.819 15.6404 81.0455 15.5445C82.3869 14.876 83.8995 14.5 85.5 14.5C87.5444 14.5 89.4455 15.1135 91.0293 16.1664Z" fill="url(#paint5_linear_1_317)"/>
</g>

<!-- EMPTY GROUP FROM ORIGINAL SVG -->
<g clip-path="url(#clip0_1_317)"></g>

</g>
</g>
<defs>
<linearGradient id="paint0_linear_1_317" x1="614.808" y1="15.5445" x2="614.808" y2="911.099" gradientUnits="userSpaceOnUse">
<stop stop-color="#FFD305" style="stop-color:#FFD305;stop-color:color(display-p3 1.0000 0.8275 0.0196);stop-opacity:1;"/>
<stop offset="1" stop-color="#FDCF01" style="stop-color:#FDCF01;stop-color:color(display-p3 0.9922 0.8118 0.0039);stop-opacity:1;"/>
</linearGradient>
<linearGradient id="paint1_linear_1_317" x1="575.5" y1="21.499" x2="575.5" y2="1154.96" gradientUnits="userSpaceOnUse">
<stop stop-color="#52CF30" style="stop-color:#52CF30;stop-color:color(display-p3 0.3216 0.8118 0.1882);stop-opacity:1;"/>
<stop offset="1" stop-color="#3BBD1C" style="stop-color:#3BBD1C;stop-color:color(display-p3 0.2314 0.7412 0.1098);stop-opacity:1;"/>
</linearGradient>
<linearGradient id="paint2_linear_1_317" x1="602.223" y1="24.5" x2="602.223" y2="1024.5" gradientUnits="userSpaceOnUse">
<stop stop-color="#14ADF6" style="stop-color:#14ADF6;stop-color:color(display-p3 0.0784 0.6784 0.9647);stop-opacity:1;"/>
<stop offset="1" stop-color="#1191F4" style="stop-color:#1191F4;stop-color:color(display-p3 0.0667 0.5686 0.9569);stop-opacity:1;"/>
</linearGradient>
<linearGradient id="paint3_linear_1_317" x1="623.984" y1="24.5" x2="623.984" y2="920.055" gradientUnits="userSpaceOnUse">
<stop stop-color="#CA70E1" style="stop-color:#CA70E1;stop-color:color(display-p3 0.7922 0.4392 0.8824);stop-opacity:1;"/>
<stop offset="1" stop-color="#B452CB" style="stop-color:#B452CB;stop-color:color(display-p3 0.7059 0.3216 0.7961);stop-opacity:1;"/>
</linearGradient>
<linearGradient id="paint4_linear_1_317" x1="585.5" y1="16.1664" x2="585.5" y2="1149.62" gradientUnits="userSpaceOnUse">
<stop stop-color="#FF645D" style="stop-color:#FF645D;stop-color:color(display-p3 1.0000 0.3922 0.3647);stop-opacity:1;"/>
<stop offset="1" stop-color="#FF4332" style="stop-color:#FF4332;stop-color:color(display-p3 1.0000 0.2627 0.1961);stop-opacity:1;"/>
</linearGradient>
<linearGradient id="paint5_linear_1_317" x1="603.769" y1="14.5" x2="603.769" y2="1014.5" gradientUnits="userSpaceOnUse">
<stop stop-color="#FBB114" style="stop-color:#FBB114;stop-color:color(display-p3 0.9843 0.6941 0.0784);stop-opacity:1;"/>
<stop offset="1" stop-color="#FF9508" style="stop-color:#FF9508;stop-color:color(display-p3 1.0000 0.5843 0.0314);stop-opacity:1;"/>
</linearGradient>
<clipPath id="clip0_1_317">
<rect width="16.9998" height="28.5186" fill="white" style="fill:white;fill-opacity:1;" transform="translate(267 21.6)"/>
</clipPath>

<clipPath id="clip_r1c2"><rect x="54.5" y="-6.5" width="61" height="61"/></clipPath>
</defs>
</svg>