<svg xmlns="http://www.w3.org/2000/svg" width="44" height="43" viewBox="0 0 44 43">
  <defs><clipPath id="clip_sgtwatermelon_09"><rect x="0" y="0" width="44" height="43"/></clipPath></defs>
  <g clip-path="url(#clip_sgtwatermelon_09)">
    <svg x="8.41" y="2.34" width="38.28" height="37.41" viewBox="-208.959 274.5 246.5006 236.2" preserveAspectRatio="xMidYMid meet" style="overflow:hidden">
<path style="stroke-width:1" d="m-139.3 365.4-4-1c0-2 18-24 20-26 3 2 20 23 21 26l-1 1h-2l-12-2v65q5-2.1 12-3h2v1q-3 6-9 12c-2 3-6 12-11 12-4-2-20-22-20-25h3l12 2v-64z" fill="#e34147"/><path style="stroke-width:1" d="m-139.3 365.4-4-1c0-2 18-24 20-26 3 2 20 23 21 26l-1 1h-2l-17-22c-5 5-14 16-17 22m34 60h2v1q-3 6-9 12c-2 3-6 12-11 12-4-2-20-22-20-25h3l17 22c5-4 14-17 18-22" fill="#deddad"/><path style="stroke-width:1" d="M-120.3 381.4c1-4-1-13 1-18h2v65h-2c-2-4 0-17-1-21z" fill="#ef666e"/><path style="stroke-width:1" d="M-120.3 407.4q1 4-3 5-4-3 0-7z" fill="#340a0b"/><path style="stroke-width:1" d="M-120.3 384.4h-4c-1-2-1-7 2-7l2 4zm-3-34q6 3.9 1 9l-2-1q-2-5 1-8" fill="#010000"/><path style="stroke-width:1" d="M-124.3 432.4h3q2 4-1 7h-1q-3-4-1-7" fill="#340a0b"/>
    </svg>
  </g>
</svg>
